<svg width="487" height="183" viewBox="0 0 487 183" fill="none" xmlns="http://www.w3.org/2000/svg">
<g clip-path="url(#clip0_35_197)">
<path d="M132.408 145.587C122.315 145.587 112.866 145.653 103.425 145.476C102.566 145.461 101.344 144.007 100.959 142.974C97.938 134.825 94.976 126.655 92.2362 118.418C91.4143 115.945 90.3702 114.971 87.6229 114.993C72.9686 115.141 58.3068 115.111 43.6525 115.008C41.2829 114.993 40.187 115.746 39.4391 117.968C36.6178 126.308 33.6558 134.611 30.5754 142.863C30.1681 143.963 28.7908 145.461 27.8281 145.483C18.7349 145.683 9.63422 145.601 0.0078125 145.601C0.585397 143.933 0.970453 142.693 1.43696 141.483C18.0536 98.3051 34.7073 55.1495 51.2499 11.9495C52.3755 9.01936 53.6713 7.74986 57.0036 7.90485C63.5199 8.21485 70.0584 8.12628 76.5822 7.927C79.1295 7.84581 80.1588 8.74627 81.0326 11.0491C96.9235 52.795 112.918 94.4966 128.883 136.213C130.009 139.143 131.097 142.088 132.415 145.587H132.408ZM65.7562 43.9011C60.595 58.8103 55.5004 73.5425 50.3687 88.3705H81.1732C75.9528 73.3137 70.8804 58.6701 65.7636 43.9011H65.7562Z" fill="#F5F5F5"/>
<path d="M397.519 42.5873H424.517C424.643 44.4104 424.762 46.0711 424.903 48.0787C425.828 47.5472 426.561 47.2003 427.213 46.7427C443.148 35.5386 464.815 39.1257 476.352 54.9133C483.179 64.2574 485.786 75.0482 486.63 86.2744C487.504 97.9287 487.015 109.531 482.994 120.721C476.419 139.01 462.512 148.672 444.029 147.69C437.084 147.321 430.93 144.73 424.725 140.088C424.725 145.358 424.725 149.927 424.725 154.495C424.725 158.902 424.843 163.315 424.636 167.722C424.584 168.799 423.77 170.335 422.859 170.807C415.002 174.874 407.042 178.749 399.096 182.668C398.689 182.867 398.193 182.867 397.512 183.007V42.5873H397.519ZM424.732 93.9357C424.732 99.5746 424.703 105.206 424.762 110.845C424.769 111.901 424.806 113.214 425.399 113.967C430.404 120.293 437.202 122.632 445.037 121.872C451.649 121.23 455.322 116.75 457.025 110.867C460.209 99.892 460.143 88.7617 456.529 77.9341C452.019 64.4272 436.388 61.5044 426.828 72.2287C425.658 73.5351 424.903 75.6313 424.821 77.3953C424.569 82.894 424.725 88.4222 424.725 93.9357H424.732Z" fill="#F5F5F5"/>
<path d="M317.153 66.9219H270.583V42.7054H352.911C352.911 49.0308 353.022 55.3561 352.807 61.6741C352.77 62.8034 351.489 63.9548 350.645 64.9733C335.591 83.1154 320.514 101.243 305.453 119.37C305.149 119.732 304.92 120.145 304.401 120.905H352.726V145.262H270.272C270.272 137.741 270.168 130.301 270.376 122.868C270.413 121.636 271.709 120.329 272.642 119.237C287.081 102.335 301.55 85.4699 316.012 68.5899C316.316 68.2357 316.545 67.8223 317.16 66.9145L317.153 66.9219Z" fill="#F5F5F5"/>
<path d="M236.677 -4.43636e-06V42.2995H261.876C261.876 47.5103 261.876 52.3521 261.876 57.194C261.876 64.004 258.492 67.3721 251.723 67.2983C246.836 67.254 241.941 67.2909 236.832 67.2909C236.743 68.8483 236.625 70.0366 236.625 71.2323C236.625 82.9899 236.64 94.7476 236.669 106.505C236.669 108.092 236.714 109.694 236.906 111.273C237.758 118.285 241.564 121.747 248.628 121.924C252.686 122.027 256.751 122.034 260.809 122.101C261.024 122.101 261.231 122.3 261.668 122.514V145.262C260.683 145.38 259.75 145.587 258.81 145.587C251.664 145.587 244.518 145.631 237.38 145.528C222.533 145.306 211.707 135.778 209.656 121.127C209.264 118.344 209.101 115.51 209.101 112.705C209.064 80.9823 209.115 49.2596 209.012 17.5368C209.004 14.6952 209.782 13.1674 212.44 11.9274C220.327 8.25913 228.057 4.26611 236.677 -0.00738525V-4.43636e-06Z" fill="#F5F5F5"/>
<path d="M138.221 42.6021H165.197C165.404 44.5654 165.589 46.322 165.841 48.706C174.897 40.0926 185.323 39.0224 196.52 41.0964C199.445 41.6352 200.933 42.6685 200.77 46.1006C200.444 53.0607 200.674 60.0503 200.674 67.6526C199.297 66.9071 198.297 66.3757 197.312 65.8369C186.745 60.0356 174.89 63.6153 169.329 74.2732C166.048 80.569 165.515 87.3815 165.5 94.2826C165.463 109.723 165.486 125.157 165.486 140.597C165.486 142.059 165.486 143.52 165.486 145.291H138.221V42.6021Z" fill="#F5F5F5"/>
<path d="M361.59 42.5725H388.596V145.439H361.59V42.5725Z" fill="#F5F5F5"/>
<path d="M359.539 18.5554C359.524 9.93457 366.603 2.85637 375.201 2.89327C383.79 2.93018 390.832 10.0748 390.78 18.6808C390.721 27.1024 383.738 34.0772 375.26 34.1806C366.685 34.2839 359.546 27.1909 359.539 18.5554Z" fill="#F5F5F5"/>
</g>
<defs>
<clipPath id="clip0_35_197">
<rect width="487" height="183" fill="white"/>
</clipPath>
</defs>
</svg>
