<svg xmlns="http://www.w3.org/2000/svg" viewBox="0 0 612 612" xmlnsV="https://vecta.io/nano"><linearGradient id="A" gradientUnits="userSpaceOnUse" x1="615.079" y1="311.144" x2=".723" y2="302.67"><stop offset="0" stop-color="#3e82f4"/><stop offset="1" stop-color="#93dcf7"/></linearGradient><path d="M350.93 112.83c-60 .12-115.26 32.03-144.55 83.48a92.47 92.47 0 0 0-39.74-9.03c-44.58.12-82.53 31.92-89.66 75.16C30.35 281.62 0 326.42 0 376.08.07 444.1 56.23 499.2 125.47 499.17c5.26-.05 10.52-.42 15.73-1.11h348.63c1.83.13 3.66.22 5.5.26 1.75-.05 3.5-.14 5.24-.26h8.35v-.61c58.75-6.83 103.04-55.96 103.08-114.36v-.22c-.14-55.27-40.01-102.66-95.03-112.94-3.29-87.74-76.68-157.17-166.04-157.1z" fill="url(#A)"/></svg>