<svg xmlns="http://www.w3.org/2000/svg" viewBox="0 0 612 612" fill="#ee2a7b" xmlnsV="https://vecta.io/nano"><path d="M290.98 275.35l30.94.07v-24.59c.16-.52.07-1.37.07-2v-3.87l-31.07-.07v-52.3c-.41.1-.75.37-1.09.55l-.41.14v.07h-.15v.07h-.15v.07h-.15v.07h-.07v.07l-.3.07v.07l-.22.07v.06l-.45.15v.06l-.3.07v.04h-.15v.07h-.15v.07h-.07v.07h-.15v.07h-.15v.07l-.3.07v.09h-.14l-4.95 2.54h-.14v.07h-.15v.07h-.15v.07h-.15v.07h-.15v.07h-.07v.07h-.15v.07h-.15v.07h-.15v.07l-.3.07v.03l-.3.07v.07l-.37.14v.07l-.28.07c-3.03 1.63-6.23 3.08-9.27 4.71h-.16v.07h-.07v.07h-.15v.07h-.15v.07h-.15v.07h-.15 0-.15v.07h-.15v.07l-.3.07v.1l-.22.07v.07l-.3.07v.06l-.45.15v.07l-.28.07c-1.53.82-3.15 1.59-4.68 2.41l-.28.07v.09H262v.07h-.07v.07h-.15v.07h-.15v.07h-.15v.07l-.3.07v.01h-.15v.07h-.07v.07h-.15v.07h-.15v.07h-.15v.08l-.22.07v.07l-.3.07v.06l-.45.15v.04l-.45.14v.07h-.07v.07h-.15v.07h-.15v.07h-.08c-.4.2-.83.46-1.26.62v124.53c0 .72-.11 1.69.07 2.28v.76l.07 1.52h.07v.76c.21.67.17 1.56.37 2.21v.63c.19.68.25 1.53.45 2.19v.33h.06l.06.6h.11c.02.17.04.35.07.52h.07v.3h.07v.3h.07v.22h.07v.3h.07v.22h.07v.3h.07v.22h.07v.22h.03c.05.25.09.48.14.67h.06v.22h.07v.22h.07v.22h.07v.15h.07a7 7 0 0 1 .07.45h.07v.15h.07c.04.2.09.4.13.6h.02v.15h.07v.22h.07c.02.12.05.25.07.37h.07v.07h.07v.22h.07v.15h.07v.22h.07c.02.1.05.2.07.3h.07v.15h.07c.02.1.05.2.07.3h.07v.15h0v.22h.07v.07h.07c.02.1.05.2.07.3h.07v.15h.07v.15h.07v.15h.07v.15h.07v.07h.07c.02.1.05.2.07.3h.07v.15h.07v.15h.07v.15h0v.14l.15.14v.11c.05.03.1.05.15.08v.15l.15.14v.14h.07v.14c.05.02.1.05.15.07v.28l.15.14v.14c.05.02.1.05.15.07.02.09.05.18.08.28.05.02.1.05.15.07.02.07.05.14.08.21h0c.02.09.05.18.08.28.05.02.1.05.15.07v.14c.05.02.1.05.15.07v.17c.05.03.1.05.15.08v.13c.05.03.1.05.15.08v.14l.07.07v.14h.07c.02.07.05.14.07.21.05.02.1.05.15.07v.14l.22.14v.14c.05.03.1.05.15.08v.13l.22.15v.13l.15.14v.1l.26.21.06.21c.04.02.09.05.13.07v.14c.04.02.09.05.13.07l.13.21h.12v.14c.12.09.25.18.37.28v.17l.45.41v.14l.86.76c.55.55 1.02 1.13 1.66 1.59l.42.46h.14a5.24 5.24 0 0 0 .28.37h.14l.28.3h.13l.15.22h.11l.22.3.22.07.07.15h.12l.08.15h.13l.15.22h.13l.07.07h.13l.15.22h.18l.07.15h.13l.07.15.2.08v.08l.26.08.07.15.2.08v-.08l.27.08.07.15.27.08.07.15.27.08.07.15h.13l.13.15h.13v.07h.15l.08.15h.16l.15.15h.13v.07h.15v.07h.15v.07h.07v.07h.15v.07h.15v.07h.15v.04l.37.14v.07l.37.08v.06l.3.07v.07h.22v.07l.3.07v.07h.15v.07l.3.07v.09h.22v.07h.15v.07h.15 0 .22v.07h.15v.07h.22v.07h.22v.07h.15v.07h.22v.07h.22v.07h.22v.07h.22v.07h.15v.07h.22v.07l.45.07v.01h.3v.07h.22v.07h.3v.07h.3v.07h.22v.07h.3v.07h.3v.07h.37c.55.18 1.3.28 1.87.45h.3v.07h.45 0 .52v.07h.52v.07h.67v.07l1.18.07h.69c.58.18 1.52.07 2.21.07h.7v.07h5.25l14.51.07c.72-.22 2.04-.07 2.9-.07h6.08V343.3h-3.39c-.58 0-1.34-.06-1.8.07l-4.36-.07h-3.14s-1.24.05-1.66-.07h-2.28c-1.09-.09-2.46-.06-3.39-.34l-.69-.07-2.14-.69v-.07l-.37-.14v-.04h-.15v-.07h-.15v-.07h-.15v-.07h-.15l-.15-.15h-.11a1.01 1.01 0 0 1-.07-.15l-.3-.07c-.03-.05-.05-.1-.08-.15h-.12l-.07-.07h-.13c-.05-.07-.1-.15-.15-.22h-.13c-.05-.07-.1-.15-.15-.22h.04l-.3-.37h-.15l-.45-.52-.75-.67v-.15l-.37-.3v.01l-.22-.15v-.13l-.22-.14v-.14c-.05-.02-.1-.05-.15-.07-.03-.07-.05-.14-.07-.21h-.07v-.14c-.05-.02-.09-.05-.14-.07-.02-.09-.05-.19-.07-.28-.05-.02-.09-.05-.14-.07-.05-.14-.09-.28-.14-.42-.05-.02-.09-.05-.14-.07-.02-.09-.05-.19-.07-.28h-.07v-.07h-.07l-.15-.45h0v-.22h-.07v-.15h-.07a3.25 3.25 0 0 1-.07-.3h-.07v-.15h-.07v-.15h.07l-.89-2.7-.6-3.25-.15-2.21v-.97c-.17-.58-.07-1.52-.07-2.21v-48.31l.21.02zm189.56-60.49v-1.27h-.07v-.67h-.07v-.45h-.07v-.45h-.07v-.37h-.07c-.02-.2-.04-.4-.07-.6h-.09v-.3h-.07v-.3h-.07v-.3h0v-.22h-.07v-.15h-.07v-.22h-.07v-.3h-.07v-.15h-.07c-.04-.2-.09-.4-.13-.6h-.1v-.15h-.07v-.15h-.06c-.02-.13-.05-.23-.07-.3h-.02v-.22h-.07l-.15-.45h-.07v-.07h-.07v-.15h-.07v-.21c-.05-.02-.1-.05-.15-.07v-.17h-.07v-.15h-.07v-.15h-.07v-.14l-.15-.14v-.02c-.04-.02-.09-.05-.13-.07-.02-.1-.04-.2-.07-.3-.04-.02-.09-.05-.13-.07-.02-.1-.04-.2-.07-.3h-.07c-.02-.07-.04-.15-.07-.22-.04-.02-.09-.05-.13-.07v-.15h-.07c-.03-.07-.05-.14-.07-.21-.05-.02-.1-.05-.15-.07v-.14l-.22-.14v-.13l-.07-.07v-.13l-.22-.15v-.12l-.3-.22v-.12l-.37-.3v-.2l-.52-.46v-.13c-.11-.09-.22-.17-.33-.26l-.59-.65h-.13l-.46-.52h-.2l-.3-.37h-.12l-.22-.3h-.12c-.05-.07-.1-.15-.15-.22h-.07c-.05-.07-.1-.15-.15-.22h-.15a1.01 1.01 0 0 1-.07-.15l-.22-.07h0-.16c-.02-.06-.05-.1-.07-.15h-.14c-2.94-1.96-6.39-3.28-11.41-3.18-.19.17-.85.07-.85.07v.05h-.6v.07h-.45v.07h-.45v.07h-.34c-.36.12-.83.25-1.17.37h-.28v.07h-.22 0-.22v.07l-.67.15v.07h-.15v.07l-.45.07v.09h-.07v.07h-.22v.07l-.3.07v.07h-.15v.07l-.45.14v.02h-.15v.07h-.15v.07h-.15v.07h-.15v.07h-.07v.07h-.15v.07h-.15l-.15.15h-.12c-.03.05-.05.1-.08.15l-.3.07c-.03.05-.05.1-.08.15h-.11v.07h-.15v.07l-.21.07c-.02.04-.05.09-.07.13l-.28.07-.14.2h-.14c-.02.04-.05.09-.07.13l-.21.07v.03h-.15c-.05.07-.1.15-.15.22h-.1l-.22.3h-.12l-.22.3h.07l-.3.37h-.15l-1.05 1.12-.9.82v.15l-.45.37v-.09l-.22.21v.13l-.22.15v.13l-.22.15v.13l-.15.08v.13l-.22.15v.15l-.15.07v.14l-.15.07c-.03.07-.05.14-.08.21h0c-.03.09-.05.19-.08.28l-.15.07c-.03.09-.05.19-.08.28l-.15.07v.14l-.15.14v.14h-.07v.15h-.07v.07l-.15.07c-.03.1-.05.2-.07.3h-.07a3.25 3.25 0 0 0-.07.3h0v.22h-.07v.07h-.07a3.25 3.25 0 0 0-.07.3h-.07v.22h-.07a3.25 3.25 0 0 0-.07.3h-.05s-.05.24-.07.37h-.03v.15h-.07a7 7 0 0 0-.07.45h-.07v.15h-.07v.22h-.07v.22h-.07v.22h-.07c-.02.17-.04.35-.07.52h-.09v.3h-.07v.22h-.07v.37h-.07v.37h-.07v.3h-.07l-.14 1.8c-.15.53-.15 2.1 0 2.63l.07 1.32h.06v.45h.07v.37h.07v.37h.07v.37h.07v.22h.07v.3h.07c.02.17.04.35.07.52h.09v.22h.07v.22h.07v.22h.07v.22h.07v.15h.07c.02.15.05.3.07.45h0v.15h.07v.15h.07c.02.1.05.2.07.3h.07v.22h.07c.02.1.05.2.07.3h.07v.07h.07v.22h0l.15.45h.08c.02.1.05.2.08.3l.15.07v.15l.15.15v.07h.07v.07l.13.07a3.25 3.25 0 0 0 .07.3l.13.07a3.25 3.25 0 0 0 .07.3h.07c.02.07.04.15.07.22l.13.07v.15h.07c.02.07.05.14.07.21l.15.07v.14l.15.07c.02.07.05.14.07.21l.22.14v.1l.22.15v.13l.22.21v-.08l.45.37v.15l1.27 1.2.67.75h.15l.3.37h-.07l.3.37h.12c.05.07.1.15.15.22h.13l.14.15h.14c.02.05.05.1.08.15h.13c.05.07.1.15.15.22h.13c.02.05.05.1.08.15h.16c.02.05.04.09.07.14l.27.07c.02.05.04.09.07.14l.2.07v.07l.41.14c.02.05.04.09.07.14l1.09.5v.07h.15v.07l.45.14v.02l.3.07v.08h.15v.07h.22v.07h.07v.07l.45.07v.07h.15v.07l.6.14v.02h.3v.07h.22v.07h.3v.07h.22v.07h.3v.07h.3v.07h.37c.36.11.9.19 1.27.3h.45v.07h.93c.25.07 1.71.17 2.05.07v-.07h.82v-.07h.6v-.07h.52v-.07h.37v-.07h.37V234h.37v-.07l.82-.14v-.08l.45-.06v-.09h.22v-.07h.22 0 .22v-.07l.6-.15v-.07h.15v-.07h.22v-.07h.15v-.07h.15v-.07l.3-.07v-.09h.15v-.07h.22v-.07l.45-.14v-.09h.07 0l.41-.15c.02-.05.05-.1.07-.15h.14l.14-.15h.14v-.07h.15c.02-.05.05-.1.08-.15h.15v-.07h.13l.07-.07h.14c.02-.05.05-.1.08-.15h.13c.02-.05.05-.1.08-.15h.13c.02-.05.05-.1.08-.15h.13c.02-.05.05-.1.08-.15h.13c.02-.05.05-.1.08-.15h.14l.14-.15h.13c.05-.07.1-.15.15-.22h.12l.22-.3h.12l.22-.3h-.02l.52-.52h.15l.37-.39.75-.59v-.13l.15-.07v-.15l.37-.35v-.13l.37-.3v-.11l.3-.22c.02-.07.05-.15.07-.22l.15-.07v-.15l.22-.14v-.14l.15-.07c.02-.07.05-.14.07-.21h0v-.13l.15-.07v-.13l.15-.07c.02-.07.05-.13.08-.2h0c.02-.09.05-.18.08-.28l.15-.07c.02-.09.05-.18.08-.28l.15-.07v-.14l.15-.14v-.15h.07v-.15h.07v-.14l.15-.07v-.09h.07v-.15h.07v-.22h.07v-.07h.07l.15-.45h.07v-.22h.07c.02-.1.05-.2.07-.3h0v-.22h.07v-.07h.07l.14-.62c.68-1.53.96-3.34 1.06-5.45.01-.3.18-.79.07-1.17l-.09.08h0zM162.32 370.8v-.15h-.07v-.22h-.07v-.22h-.07v-.07h-.07a7 7 0 0 1-.07-.45h-.07v-.15h0v-.22h-.07v-.07h-.07a7 7 0 0 1-.07-.45h-.07v-.15h-.07a7 7 0 0 1-.07-.45h-.07v-.07h-.07a7 7 0 0 1-.07-.45h-.07v-.15h-.07v-.22h-.07v-.07h-.07a7 7 0 0 1-.07-.45h-.07v-.15h-.07a7 7 0 0 1-.07-.45h0v-.07h-.07v-.22h-.07v-.15h-.07a7 7 0 0 1-.07-.45h-.07v-.07h-.07a7 7 0 0 1-.07-.45h-.07v-.15h-.07c-.02-.14-.05-.28-.07-.42-1.25-2.86-2.2-6-3.45-8.86v-.21h-.07v-.22h-.07v-.07h-.07a7 7 0 0 1-.07-.45h-.07v-.07h-.07c-.02-.14-.05-.28-.07-.42-.75-1.74-1.36-3.68-2.1-5.42v-.21h-.07v-.22h-.07v-.15h-.07a7 7 0 0 1-.07-.45h-.07v-.07h-.07a7 7 0 0 1-.07-.45h0v-.15h-.07v-.22h-.07v-.07h-.07a7 7 0 0 1-.07-.45h-.07v-.07h-.07a7 7 0 0 1-.07-.45h-.07v-.15h-.07v-.22h-.07v-.15h-.05c-.02-.12-.05-.26-.07-.45h-.03v-.07h-.07c-.02-.14-.05-.28-.07-.42-1.14-2.57-2.01-5.39-3.15-7.96v-.21h-.07v-.22h-.07v-.07h-.07a7 7 0 0 1-.07-.45h-.07v-.15h-.07v-.22h0v-.07h-.07a7 7 0 0 1-.07-.45h-.07v-.15h-.07a7 7 0 0 1-.07-.45h-.07v-.07h-.07a7 7 0 0 1-.07-.45h-.07c-.03-.12-.05-.25-.07-.37h-.07v-.07h-.07v-.22h-.07v-.22h-.07v-.15h-.07a7 7 0 0 1-.07-.45h0v-.07h-.07v-.22h-.07v-.15h-.07a7 7 0 0 1-.07-.45h-.07v-.07h-.07v-.22h-.07v-.22h-.07v-.15h-.07a7 7 0 0 1-.07-.45h-.07v-.07h.07v-.22h-.07v-.15h-.18c-.02-.12-.05-.26-.07-.45h-.05v-.07h-.07a7 7 0 0 1-.07-.45h-.07c-.03-.12-.05-.25-.07-.37h-.07v-.07h-.07v-.22h-.07v-.22h-.07v-.07h-.07a7 7 0 0 1-.07-.45h-.07v-.15h-.07c-.02-.14-.05-.27-.07-.41-.75-1.72-1.36-3.64-2.1-5.36v-.21h-.07v-.22h-.07v-.15h-.06c-.02-.15-.05-.29-.07-.45h-.02v-.07h-.07c-.02-.14-.05-.28-.07-.42-.77-1.74-1.4-3.68-2.17-5.42v-.21h-.07v-.22h-.07v-.15h-.07a7 7 0 0 1-.07-.45h-.07v-.07h-.07c-.02-.14-.05-.28-.07-.42-1.25-2.86-2.2-6-3.45-8.86v-.21h-.07v-.22h-.07v-.15h-.07a7 7 0 0 1-.07-.45h-.07v-.07h-.07a7 7 0 0 1-.07-.45h0V302h-.07v-.22h-.07v-.15h-.07a7 7 0 0 1-.07-.45h-.07v-.07h-.07a7 7 0 0 1-.07-.45h-.07c-.03-.12-.05-.25-.07-.37h-.07v-.07h-.07V300h-.07v-.22h0v-.15h-.07a7 7 0 0 1-.07-.45h-.07v-.07h-.07a7 7 0 0 1-.07-.45h-.07v-.15h-.07v-.22h-.07v-.07h-.07a7 7 0 0 1-.07-.45h-.07v-.15h-.07a7 7 0 0 1-.07-.45h-.04s-.05-.19-.07-.3h-.04v-.15h-.07v-.22h-.07v-.22h-.07v-.07h-.07a7 7 0 0 1-.07-.45h-.07v-.07h-.07a7 7 0 0 1-.07-.45h-.07v-.15h-.07v-.22h-.07v-.15h-.07a7 7 0 0 1-.07-.45h-.07v-.07h-.07a7 7 0 0 1-.07-.45h0v-.07h-.07v-.22h-.07v-.15h-.07a7 7 0 0 1-.07-.45h-.07v-.07h-.07a7 7 0 0 1-.07-.45h-.07v-.15h-.05c-.02-.14-.07-.37-.07-.37h-.03c-.03-.12-.05-.25-.07-.37h-.07v-.15H132v-.22h-.07v-.22h-.07v-.07h-.07c-.02-.14-.05-.28-.07-.42-.77-1.74-1.4-3.68-2.17-5.42v-.21h-.07v-.22h0v-.07h-.07a7 7 0 0 1-.07-.45h-.07v-.15h-.07c-.02-.14-.05-.27-.07-.41-.77-1.72-1.4-3.64-2.17-5.36v-.21h-.07v-.22h-.07v-.15h-.07a7 7 0 0 1-.07-.45h-.07v-.15h-.07c-.02-.14-.05-.27-.07-.41-1.25-2.84-2.2-5.95-3.45-8.79v-.21h-.07v-.22h0v-.15h-.07a7 7 0 0 1-.07-.45h-.07v-.07h-.07c-.03-.15-.05-.3-.07-.45h-.07V266h-.07v-.22h-.07v-.07h-.07a7 7 0 0 1-.07-.45h-.07v-.15h-.05c-.02-.14-.07-.37-.07-.37h-.03c-.03-.12-.05-.25-.07-.37h-.07V264h-.07v-.22h-.07v-.22h-.07v-.07h-.07c-.03-.15-.05-.3-.07-.45h-.07v-.15h-.07a7 7 0 0 1-.07-.45h-.07v-.07h-.07v-.22h-.07V262h-.07c-.03-.15-.05-.3-.07-.45h-.07v-.07h-.07a7 7 0 0 1-.07-.45h0c-.03-.12-.05-.25-.07-.37h-.07v-.07h-.07v-.22h-.07v-.22h-.07v-.07h-.07c-.03-.15-.05-.3-.07-.45h-.07v-.15h-.07a7 7 0 0 1-.07-.45h0v-.07H120v-.22h-.07v-.15h-.07a7 7 0 0 1-.07-.45h-.07v-.07h-.07c-.03-.15-.05-.3-.07-.45h-.07v-.15h-.07v-.22h-.07v-.07h-.05c-.02-.18-.05-.32-.07-.45h-.03v-.15h-.07c-.03-.15-.05-.3-.07-.45h-.07v-.07h-.07a7 7 0 0 1-.07-.45h-.07c-.03-.12-.05-.25-.07-.37h-.07v-.07h-.07v-.22h-.07v-.22h-.07v-.15h-.07a7 7 0 0 1-.07-.45h-.07v-.07h0v-.22h-.07v-.15h-.07a7 7 0 0 1-.07-.45h-.07v-.07h-.07v-.22h-.07v-.22h-.07v-.07h-.07c-.03-.15-.05-.3-.07-.45h-.07v-.15h-.07v-.22h-.07v-.07h-.07c-.03-.15-.05-.3-.07-.45h-.07v-.15h-.03c-.02-.15-.07-.37-.07-.37h-.05c-.03-.12-.05-.25-.07-.37h-.07v-.15h-.07v-.22h-.07v-.22h-.07v-.07h-.07c-.03-.15-.05-.3-.07-.45h-.07v-.15h-.04c-.02-.14-.07-.37-.07-.37h-.04v-.15h-.07v-.22h-.07v-.15h-.07a7 7 0 0 1-.07-.45h-.07v-.07h-.07c-.03-.15-.05-.3-.07-.45h-.07v-.15h-.07v-.22h-.07v-.07h-.05c-.02-.17-.05-.31-.07-.45h-.03v-.15h-.07c-.02-.14-.05-.28-.07-.42-1.14-2.57-2.01-5.39-3.15-7.96v-.21h-.07v-.22h-.07v-.07h-.07a7 7 0 0 1-.07-.45h-.07v-.15h-.07v-.22h0v-.07h-.07a7 7 0 0 1-.07-.45h-.07v-.15h-.07c-.03-.15-.05-.3-.07-.45h-.07v-.07h-.07a7 7 0 0 1-.07-.45h-.07c-.03-.12-.05-.25-.07-.37H111v-.07h-.07c-.03-.15-.05-.3-.07-.45h-.07v-.07h-.07a7 7 0 0 1-.07-.45h0v-.15h-.07v-.22h-.07v-.07h-.07a7 7 0 0 1-.07-.45h-.07v-.15h-.07c-.03-.15-.05-.3-.07-.45h-.07v-.07h-.07c-.02-.14-.05-.28-.07-.42-1.25-2.87-2.2-6.01-3.46-8.88-.02-.14-.05-.28-.07-.42h-.07v-.15h-.07a7 7 0 0 1-.07-.45h-.07v-.07h-.07c-.03-.15-.05-.3-.07-.45h0v-.15h-.07v-.22h-.07v-.07h-.07c-.03-.15-.05-.3-.07-.45h-.07v-.15h-.07c-.02-.14-.05-.28-.07-.42-.83-1.92-1.5-4.03-2.33-5.95v-.21h-.07v-.22h-.07v-.07h-.07a7 7 0 0 1-.07-.45h-.07v-.15h-.07v-.22h-.07v-.07h-.07c-.03-.15-.05-.3-.07-.45h-.07v-.15h-.07v-.15h.07v-.22h-.07v-.15h-.07c-.03-.15-.05-.3-.07-.45h-.15v-.15h-.07v-.22h-.07v-.07h-.07c-.03-.15-.05-.3-.07-.45h-.07v-.07h-.07c-.03-.15-.05-.3-.07-.45h-.07c-.03-.12-.05-.25-.07-.37h-.07l.15-.15h-.07v-.22h-.15v-.15h-.07v-.15h-.07c-.03-.15-.05-.3-.07-.45h-.07v-.07H101c-.03-.15-.05-.3-.07-.45h-.07v-.15h-.07v-.22h-.07v-.07h-.07c-.03-.15-.05-.3-.07-.45h-.07v-.15h-.04c-.02-.14-.07-.37-.07-.37h-.04v-.15h-.07v-.22h-.07v-.15h-.92c-.02-.14-.05-.28-.07-.42-.34-.77-.67-1.62-.97-2.42H65.21l-.2.6h-.07v.22h-.07c-.03.12-.05.25-.07.37h-.07v.07h-.07c-.03.15-.05.3-.07.45h-.07v.15h-.07a7 7 0 0 0-.07.45h-.07v.15h-.07v.21c-.94 2.14-1.68 4.5-2.61 6.64v.17h-.07v.22h-.07v.07h-.07v.22h-.07v.15h-.07c-.03.15-.05.3-.07.45h0v.07h-.07v.22h-.07v.15H61c-.03.15-.05.3-.07.45h-.07v.07h-.07c-.03.15-.05.3-.07.45h-.07v.15h-.07v.22h-.07v.07h-.07c-.03.15-.05.3-.07.45h0c-.03.12-.05.25-.07.37h-.07v.15h-.07v.22h-.07v.15h-.07v.15h-.07c-.03.15-.05.3-.07.45h-.07v.15h-.07v.15h-.07v.15h-.07a7 7 0 0 0-.07.45h-.07v.07h0v.09h-.07v.15h-.07c-.03.15-.05.3-.07.45h-.07v.07h-.07v.22h-.07v.15h-.07c-.03.15-.05.3-.07.45h-.07v.15h-.07c-.02.14-.05.28-.07.42-1.13 2.55-2.02 5.34-3.15 7.89v.21h0v.15h-.07v.15h-.07c-.03.15-.05.3-.07.45h-.07v.07h-.07v.22h-.07v.15h-.07c-.03.15-.05.3-.07.45h-.07v.07h-.07v.22h-.07v.15h-.07c-.03.15-.05.3-.07.45h0c-.03.12-.05.25-.07.37h-.07v.07h-.07v.22h-.07v.22h-.07v.15h-.07c-.02.14-.05.28-.07.41-.77 1.77-1.41 3.73-2.18 5.5v.21h-.07v.22h-.39v.07h-.07c-.03.15-.05.3-.07.45h-.07v.15h-.09v.22h-.07v.07h-.07c-.03.15-.05.3-.07.45h-.09v.15h-.07v.22h0v.15h-.07c-.03.15-.05.3-.07.45h-.09v.07h-.07c-.03.15-.05.3-.07.45h-.07v.07h-.09v.22h-.07v.15h-.07c-.03.15-.05.3-.07.45h-.06c-.03.12-.05.25-.08.37h-.09v.07h-.07v.22h-.15l.15.22h-.07v.15h-.07v.22h-.07v.07h-.07c-.03.15-.05.3-.07.45h-.07v.07h-.07c-.03.15-.05.3-.07.45h-.07v.15h-.07v.22h-.07v.07h-.07c-.03.15-.05.3-.07.45h-.07v.15h0v.22h-.07v.07h-.07c-.03.15-.05.3-.07.45h-.07c-.03.12-.05.25-.07.37h-.07v.15h-.07v.15h-.07v.22h-.07v.15h-.07c-.03.15-.05.3-.07.45h-.07v.07h0v.22h-.07v.15h-.07c-.03.15-.05.3-.07.45h-.07v.07h-.07v.22h-.07v.15h-.07c-.03.15-.05.3-.07.45h-.07v.15h-.07v.22h-.07v.07h-.05c-.02.16-.05.3-.07.45h-.03v.15h-.25c-.02.14-.05.27-.07.41-1.13 2.53-2.02 5.29-3.15 7.82v.21h-.07v.33h-.07v.15h-.07c-.03.15-.05.3-.07.45h-.07v.07h-.07v.22h-.07v.15h-.07c-.03.15-.05.3-.07.45h0v.15h-.07v.22h-.07v.07h-.07c-.03.15-.05.3-.07.45h-.07v.15h-.07v.22h-.07v.07h-.07c-.03.15-.05.3-.07.45h-.07v.07h-.07c-.03.15-.05.3-.07.45h-.03c-.03.12-.05.25-.07.37h-.04v.15h-.07v.22h-.07v.15h-.07v.15h-.07v.22h-.07v.15h-.07c-.03.15-.05.3-.07.45h-.07v.07h-.07v.22h-.07v.22h-.07v.07h0v.22h-.07v.15h-.07c-.03.15-.05.3-.07.45h-.07v.15h-.07v.22h-.25v.07h-.07c-.03.15-.05.3-.07.45h-.07v.15h-.09v.22h-.07v.07h-.07c-.03.15-.05.3-.07.45H40v.07h-.07c-.03.15-.05.3-.07.45h-.02c-.03.12-.05.25-.07.37h-.07v.15h-.07v.22h-.07v.15h-.07v.15h-.09v.22h-.07v.15h-.07c-.02.14-.05.28-.07.42-.86 1.97-1.55 4.14-2.41 6.11-.02.14-.05.28-.07.42h-.07v.07h-.07c-.03.15-.05.3-.07.45h-.07c-.03.12-.05.25-.07.37h-.07v.07h-.09c-.02.14-.05.28-.07.42-1.11 2.56-1.98 5.35-3.09 7.91-.02.14-.05.28-.07.42h-.07v.15h-.07c-.03.15-.05.3-.07.45h-.07v.07h-.09v.22h-.07v.15h-.07c-.03.15-.05.3-.07.45h-.03s-.05.18-.07.3h-.05v.15h-.07v.22h-.07v.22h-.07v.07h-.07c-.02.14-.05.28-.07.42-1.24 2.85-2.21 5.96-3.46 8.8-.02.14-.05.28-.07.42h-.07v.15h-.09c-.03.15-.05.3-.07.45h-.07v.07h-.07v.22h-.09v.15h-.07c-.03.15-.05.3-.07.45h-.04s-.05.19-.07.3h-.05v.15h-.07v.22h-.07v.22h-.07v.07h-.09c-.03.15-.05.3-.07.45h-.07v.15h-.07v.22H27v.07h-.07a7 7 0 0 0-.07.45h-.07v.15h.07v.22h-.07v.07h-.09c-.03.15-.05.3-.07.45h-.15v.15h-.07v.22h-.07v.07h-.07c-.03.15-.05.3-.07.45h-.07v.15h-.07c-.02.14-.05.28-.07.42-1.13 2.55-2.02 5.34-3.15 7.89v.21h0v.22h-.07v.07h-.07c-.03.15-.05.3-.07.45h-.07v.15h-.07v.22h-.07v.07h-.12c-.03.15-.05.3-.07.45h-.07v.15h-.07v.22H22v.07h-.07c-.03.15-.05.3-.07.45h0c-.03.12-.05.25-.07.37h-.09v.07h-.07v.22h-.07v.22h-.07v.15h-.07c-.02.14-.05.28-.07.41-1.32 3.02-2.34 6.31-3.66 9.33-.02.14-.05.28-.07.41h-.09v.15h-.07v.22h-.07v.07h-.07c-.03.15-.05.3-.07.45h0v.15h-.07v.22h-.07v.07H17c-.03.15-.05.3-.07.45h-.07v.15h-.07c-.03.15-.05.3-.07.45h-.07s-.05.19-.07.3h-.09v.15h-.05c-.02.13-.07.37-.07.37h-.1v.15h0v.22h-.07v.15h-.1c-.02.14-.07.37-.07.37h-.06v.15h-.07v.22h-.1v.15h-.07c-.03.15-.05.3-.07.45h-.07v.07h-.07c-.02.14-.05.28-.07.41-1.32 3.02-2.34 6.31-3.66 9.33-.02.14-.05.28-.07.41h-.09v.15h0v.22h-.07v.15h-.07c-.03.15-.05.3-.07.45h-.07v.15h-.07v.15h-.07v.15h-.11c-.03.15-.05.3-.07.45h-.07v.07h-.07c-.03.15-.05.3-.07.45h-.05c-.03.12-.05.25-.07.37h-.1v.15h0v.15h-.1v.22h-.07v.15h-.07v.22h-.07v.07h-.09a7 7 0 0 0-.07.45h-.07v.15h-.08v.22H9.9v.07h-.07c-.03.15-.05.3-.07.45h-.08v.15h-.05c-.02.14-.07.37-.07.37h-.03v.15h-.08v.22h-.07v.15h-.09c-.02.14-.07.37-.07.37h-.06c-.03.12-.05.25-.07.37h-.08v.15h-.08v.22h-.07v.22h-.08v.07h-.07c-.03.15-.05.3-.07.45h-.08v.15h0v.22h-.08v.07h-.07c-.03.15-.05.3-.07.45h-.08v.15h-.08v.22h-.07v.07h-.08c-.03.15-.05.3-.07.45h-.07v.15h-.08v.22h-.07v.07h-.08c-.03.15-.05.3-.07.45h-.08v.15h-.03c-.02.13-.07.37-.07.37h-.06c-.03.12-.05.25-.07.37h-.07v.15h-.07v.22h-.08v.15h-.07v.15h-.08v.22h-.07v.15h-.05c-.02.14-.07.37-.07.37h-.1v.15h0v.22h-.08v.15h-.07c-.03.15-.05.3-.07.45h-.08v.07h-.08c-.03.15-.05.3-.07.45h-.08v.15h-.07v.22h-.08v.07h-.07c-.03.15-.05.3-.07.45h-.08v.15h0v.22h-.08v.07h-.07c-.03.15-.05.3-.07.45h-.08c-.03.12-.05.25-.07.37h-.08v.07H5.2v.22h-.08v.22h-.07v.15h-.07c-.02.14-.05.28-.07.42-.99 2.26-1.78 4.75-2.78 7.01-.02.14-.05.28-.07.42h-.07v.15h-.08v.15h0v.15h-.07c-.03.15-.05.3-.07.45h-.08v.07h-.08c-.03.15-.05.3-.07.45h-.08v.15h-.07v.22h-.08v.07h-.07a7 7 0 0 0-.07.45h-.08v.15h-.08v.22H.94v.07H.87c-.03.15-.05.3-.07.45h0c-.03.12-.05.25-.07.37H.64v.07H.57c-.03.15-.05.3-.07.45H.42v.15H.34c-.03.15-.05.3-.07.45H.2l-.2.95h36.74a1.53 1.53 0 0 1 .13-.52h.07c.02-.15.05-.3.07-.45h.07v-.22h.07v-.22h.07v-.22h.07v-.07h.07v-.22h.07v-.22h0v-.22h.07v-.22h.07v-.15h.07v-.15h.07c.04-.2.09-.4.13-.6h.1c.02-.15.05-.3.07-.45h.07v-.15h.06l.32-1.27h.06v-.07h.07v-.22h.07v-.22h.07v-.22h.07v-.22h.07v-.15h.07v-.15h.07v-.22h.07v-.22h.07v-.15h.07v-.22h.07v-.21c.67-1.53 1.12-3.29 1.79-4.81v-.21h.07v-.22h0v-.22h.07v-.22h.15v-.21c.52-1.21.9-2.63 1.42-3.84v-.21h.07v-.22h.07v-.22H43v-.22h.07v-.21c.67-1.53 1.12-3.29 1.79-4.81v-.21h.07v-.22H45v-.15h0v-.22h.07v-.22h.07v-.15h.07v-.22h.07v-.22h.07v-.15h.07v-.22h.07V347h.07v-.15h.07c.04-.2.09-.4.13-.6H46c.04-.2.09-.4.13-.6h.07v-.15h.07v-.22h.07v-.22h.07v-.15h.07v-.22h.07v-.22h.07v-.15h.07c.02-.15.05-.3.07-.45h.02c.04-.2.09-.4.13-.6h.07v-.15h.07v-.15h.07v-.22h.07v-.22h.07v-.22h.07v-.22h.07v-.07h.07c.02-.15.05-.3.07-.45h.06c.04-.2.09-.4.13-.6h.1v-.15h.07v-.22h.07v-.22h0v-.15h.07v-.22h.07v-.39c.71-1.56 1.21-3.32 1.87-4.91h62.04l.21.6h.11v.22h.07v.15h0v.22h.07v.22h.07v.15h.07v.22h.07c.04.2.09.4.13.6h.1v.22h.07v.07h.07c.02.15.05.3.07.45h.02c.04.2.09.4.13.6h.07v.15h.07v.22h.07v.22h.07v.15h.07v.22h.07v.22h.07v.15h.07v.22h.07v.22h.07v.15h.07v.22h.07v.22h.07v.07h.07v.14h0v.22h.07v.22h.07v.22h.07v.22h.07v.07h.06l.32 1.27h.06v.15h.15v.22h.07v.22h0v.15h.07v.22h.07v.22h.07v.15h.07v.22h.07v.15h.07v.22h.07v.22h.07v.21c.67 1.53 1.12 3.29 1.79 4.81v.21h.07v.22h.07v.22h.07v.22h.07v.15h.07v.15h.07c.04.2.09.4.13.6h.02c.02.15.05.3.07.45h.07v.15h.07v.15h.07v.22h.07v.22h.07v.22h.07v.22h.07v.15h.07c.04.2.09.4.13.6h.05c.04.2.09.4.13.6h.07v.15h.07v.22h.07v.22h.07v.15h.07v.22h.07v.22h.07v.15h.07v.15h.07v.22h.07v.22h.07v.22h0v.22h.07v.15h.07c.04.2.09.4.13.6h.1c.02.15.05.3.07.45h.07v.07h.07v.22h.07v.22h.07v.22h.07v.22h.07v.15h.07v.15h.07v.22h0v.22h.07v.15h.07v.22h.07v.22h.07v.15h.07c.04.2.09.4.13.6h.1c.02.15.05.3.07.45h.52v.07h.07v.22h.07v.22h0v.22h.07v.22h.07v.21c.7 1.6 1.16 3.44 1.87 5.04v.21h.07v.22h.07v.15h.07v.22h.07v.22h.07v.15h.07c.02.15.05.3.07.45h.07v.15h.07v.22h.07v.22h.07v.15h.07c.05.2.09.41.14.61.11.29.32.59.34.95h37.45l-.55-1.64h-.07l.02.15zM61.77 302.16l.35-1.19h.06v-.15h.07v-.15h.07v-.22h.07v-.22h.07V300h.07v-.15h.07v-.15h.07v-.22h.07v-.22h0v-.22h.07v-.32c.46-1.05.8-2.27 1.26-3.32.02-.13.04-.27.07-.4h.07c.04-.2.09-.4.13-.6h.19v-.22h0v-.15h.07l.15-.6h.07v-.15h.07c.02-.15.05-.3.07-.45h.1c.04-.2.09-.4.13-.6h.07v-.15h.07v-.22h.07v-.22h.07v-.15h.07v-.22h.07v-.21c.9-2.11 1.49-4.5 2.39-6.6v-.21h.07v-.22h.07v-.15h.07v-.22h0v-.21c.49-1.1.85-2.37 1.34-3.47v-.21h.07v-.22h.07v-.22h.07v-.22h.07v-.15h.07v-.15h.07c.04-.2.09-.4.13-.6h.02v-.22h.07v-.15h.07c.04-.2.09-.4.13-.6h.11c.02-.15.05-.3.07-.45h.06v-.15h.07v-.22h.07v-.15h.07v-.22h.07v-.22h.07v-.07h.07c.02-.15.05-.3.07-.45h.04c.04-.2.09-.4.13-.6h.05v-.15h.07v-.22h.07v-.22h.07v-.22h.07v-.22h.07v-.15h.07v-.15h0c.02-.14.05-.27.07-.41.13-.3.32-.66.45-.95v-.2h.07v-.22h.07v-.22h.07v-.22h.07v-.15h.07v-.22h.07v-.15h.07v-.22h.07v-.22h.07v-.22h0v-.15h.07c.02-.14.05-.28.07-.42.63-1.59 1.1-3.34 1.74-4.93l.14-.62c.34-.86.63-1.85.97-2.71v-.21h.07v-.22h.07v-.15h.07v-.21c.28-.65.54-1.42.82-2.07.02-.14.05-.28.07-.41h0v-.3h.07v-.22h.07v-.22h.07v-.22h.07v-.18s.57-1.76.89-2.56c.02-.14.05-.28.07-.4h.08v-.3h.07v-.22h.07v-.15h.07v-.22h0v-.22h.07v-.3h.07v-.22h.07V252h.07v-.22h.07v-.22h.07v-.3h.07v-.15h.07v-.22h.07v-.22h.07v-.3h.07l.21-.9h.06l.13-.67h.07l.06-.45h.07v-.22h.07v-.22h.07v-.3h.07v-.22h.07v-.22h.06l.06-.45h.06l.36-1.49h.07l.06.45h.06v.3h.07v.22h.07v.28c.26.74.49 1.62.75 2.35v.28h.07v.15h.07v.22h.07v.3h.07l.21.9h.05l.21.9h.07v.22h.07v.22h.07v.22h.07v.22h.07v.22h.07v.22h.07v.15h.07v.22h.07v.22h.07v.3h.07c.02.15.05.3.07.45h0v.15h.07v.22h.07v.22h.07v.22h.07v.22h.07c.04.2.09.4.13.6h.1v.22h.07v.22h.07v.22h.07v.22h.07v.15h0v.22h.07v.22h.07v.22h.07c.02.15.05.3.07.45h.08c.02.15.05.3.07.45h.07c.02.15.05.3.07.45h.07v.09h.07v.22h.07v.22h.07v.15h.07v.22h0v.22h.07v.22h.07v.22h.07v.21c1.06 2.65 1.78 5.59 2.84 8.23v.15h.07v.22h.07v.22h.07v.21c.36.9.66 1.92 1.05 2.79v.21h.07v.15h.07v.22h.07v.22h.07v.22h.07v.15h.07c.04.2.09.4.13.6h.02v.22h.07v.15h.07c.04.2.09.4.13.6H91c.02.15.05.3.07.45h.07v.07h.07v.22h.07v.22h.07v.15h0v.22h.07v.21c.61 1.41 1.03 3.03 1.64 4.44v.21h.07v.22h.07v.22h.07v.22h.07v.2c.61 1.39 1.03 2.99 1.64 4.37v.2h.07v.22h.07v.22h.07v.15h.07v.22h.07v.15h.07c.02.14.05.28.07.42.12.3.3.67.42.97l.14.62c.65 1.48 1.09 3.17 1.74 4.64.02.14.05.28.07.42.12.3.3.67.42.97l.14.62h.07v.15h.07c.04.2.09.4.13.6h.1v.22h.07v.15h.07c.04.2.09.4.13.6h.02c.02.15.05.3.07.45h.07v.07h.07v.22h.07v.22h.07v.22h.07v.22h.07v.22h.07v.18h.07l.7 2.17-38.62-.01h0zm184.64-57.42v-.08h-.22v-.07h-.07v-.07l-.45-.07v-.01h-.22v-.07h-.22v-.07H245v-.07h-.15v-.07h-.22v-.07h-.22v-.07h-.3v-.07h-.15v-.07l-.45-.07v-.05l-.6-.07v-.07l-.52-.07v-.05l-.67-.07v-.07h-.37c-.47-.15-1.09-.23-1.57-.37h-.18c-.61-.18-1.46-.19-2.09-.37H237h0-.67v-.07h-.75v-.07h-.9v-.07l-2-.07h-.93s-2.9-.16-3.46-.01c-.38.11-.98-.02-1.31.07l-2.14.14c-.54.16-1.27.19-1.8.32h-.38v.09l-1.34.21v.07l-.82.14v.06l-.9.15v.07l-.45.06v.04H219v.07h-.22v.07h-.22v.07l-.45.07v.09h-.15v.07h-.22v.07h-.22v.07h-.22v.07h-.15v.07h-.22v.07h-.15 0-.22v.07l-.37.07v.07h-.07v.07h-.22v.07h-.15v.07h-.22v.07l-.3.07v.07h-.15v.07l-.45.14v.09h-.15v.07h-.15v.07h-.15v.07l-.45.14v.02h-.15v.07h-.15v.09h-.15v.07h-.15l-.15.15h-.07l-.08.15h-.14l-.14.07h-.1v.07h-.15v.07h-.15l-.08.15h-.15v.06l-.27.06-.07.13-.27.06-.07.13h-.14v.15h-.15l-.08.15h-.13l-.07.1-.28.07-.07.13h-.14l-.08.15h-.13l-.08.15h-.13l-.08.15h-.14l-.07.07h-.12l-.15.22h-.15l-.07.15-.22.07v.07h-.15l-.15.22h-.09l-.14.15h-.13l-.15.22h-.12l-.22.3h-.12l-.22.3h-.12l-.22.3h-.13l-.28.3h-.15l-.38.45h-.13l-.6.67h-.13l-1.43 1.49h-.08v-8.36h-33.61v127.55h33.61v-67.66h.07v-1.64h.07v-.7l.07-1.31h.07l.07-1.45.76-5.05h.08v-.3h.07v-.3h.07v-.37h0v-.3h.1l.07-.59c.37-1.11 1.02-3.39 1.02-3.39v-.2h.07v-.22h.07v-.22h.07v-.15h.07v-.15h.06l.14-.64c.66-1.51 1.3-3.09 2.14-4.43.05-.14.09-.28.14-.42l.14-.07c.05-.14.09-.28.14-.42h.07c.02-.06.05-.13.07-.2l.14-.07c.02-.09.05-.18.07-.28l.1-.07v-.14l.15-.07v-.14l.15-.08v-.1l.15-.07v-.14h.07c.02-.07.05-.14.07-.21l.15-.07v-.14l.22-.14v-.17l.15-.08v-.15l.13-.06c.02-.06.04-.13.06-.19l.26-.19v-.16l.22-.21v-.13l.3-.22v-.13l.45-.42v-.14l1.02-.9 1.04-1.08h.14l.35-.45h.14l.28-.3h.13l.15-.22h.12l.22-.3h.13l.08-.15h.13l.15-.22h.13l.07-.07h.13l.15-.22h.17l.06-.13.26-.07.06-.13.19-.07v-.07l.26-.07.06-.13h.13v-.07h.15l.08-.15.45-.15.08-.15h.07l.15-.15h.15v-.07h.15v-.07h.15v-.07h.15v-.07h.15v-.07h.07v-.07l.45-.14v-.03l.37-.08v-.07l.22-.07v-.07h.22v-.07h.15v-.07h.22v-.07h.15v.07l2.77-.97 1.18-.22c1.11-.37 2.61-.52 4.02-.52.58 0 1.34-.06 1.8.07h.9v.07h.67v.07h.45v.07h.48c.32.1.79.18 1.1.28l.69.07 2.89.85v.07h.22v.07l.6.14v.02h.15v.07h.15v.07l.37.07v.09h.15v.07h.22v.07l.3.07v.09h.07v.07h.22v.07l.3.07v.03l.3.07v.07l.22.07v.07h.15v.07h.15v.07h.14l.14.14.28.07c.02.05.05.09.07.14l.42.14c.02.05.05.09.07.14l.28.07c.02.05.05.09.07.14l.28.07c.02.05.05.09.07.14h.17c.02.05.05.1.08.15h.13c.02.05.05.1.08.15h.14l.07.07h.14c.02.05.05.1.08.15h.13c.02.05.05.1.08.15h.13l.15.22h.13l.14.15h.13l.22.3h.2l.2.3h.13v.07c.16.16.29.38.52.45v-31.66h-.07c-.17-.12-.18-.02-.4-.11h0 0zm352.31 64.06l-.03-2.77v-1.93h-.07c-.13-.42.04-1.08-.07-1.45v-.75l-.07-1.46h-.07v-.97h-.07v-.82h-.07v-.82h-.07v-.75h-.07v-.67h-.07v-.6h-.07l-.07-1.19h-.08v-.52h0v-.55c-.23-.74-.22-1.7-.45-2.42v-.57l-1.23-6.38c-.38-1.18-.62-2.56-1.03-3.7-.02-.18-.05-.37-.07-.55-.35-.98-.65-2.13-1.03-3.09v-.29h-.07v-.22h-.07v-.15h-.07v-.22h-.07v-.15h-.07v-.22h-.07v-.15h-.07v-.22h-.07V275h-.07v-.15h-.07c-.03-.15-.05-.3-.07-.45h-.07v-.07h-.07c-.03-.15-.05-.3-.08-.45h0c-.03-.12-.05-.25-.08-.37h-.08v-.07h-.07c-.03-.15-.05-.3-.07-.45h-.08c-.03-.12-.05-.25-.08-.37h-.07l-.07-.22h-.08v-.22h-.07v-.15h-.07v-.15h-.07c-.03-.1-.05-.2-.07-.3h-.07v-.22h-.03c-.02-.09-.05-.19-.07-.3h-.05v-.15h-.07c-.03-.1-.05-.2-.07-.3h-.07v-.15h-.07v-.22h-.07l-.15-.45h-.07v-.07h-.07v-.15h.07v-.22h-.07v-.15h-.07c-.03-.1-.05-.2-.07-.3h-.15v-.07h-.07v-.15h-.07v-.15h-.07v-.15h-.07v-.15h-.07c-.03-.1-.05-.2-.07-.3h-.07v-.07h-.07v-.15h-.07v-.15h-.07v-.15h0v-.14l-.15-.14v-.1l-.15-.08c-.03-.1-.05-.2-.07-.3h-.07v-.15h-.07v-.14l-.15-.14v-.12l-.15-.08v-.13l-.15-.15.15-.14h-.07v-.14l-.15-.07-.15-.42-.15-.07c-.03-.09-.05-.19-.07-.28l-.15-.07c-.03-.09-.05-.19-.07-.28l-.15-.07c-.03-.09-.05-.19-.07-.28l-.15-.07c-.03-.09-.05-.19-.07-.28l-.15-.07c-.03-.07-.05-.14-.07-.21h-.08c-.03-.09-.05-.18-.08-.28l-.15-.07v-.14l-.15-.07v-.09l-.15-.08v-.14l-.07-.07v-.14l-.15-.08v-.15l-.15-.07v-.14h-.07c-.03-.07-.05-.14-.07-.21l-.15-.07v-.14l-.22-.14v-.14l-.15-.07c-.03-.07-.05-.14-.08-.21h0v-.14l-.15-.07c-.03-.07-.05-.14-.07-.21l-.22-.14v-.12l-.15-.14v-.13l-.22-.15v-.13l-.22-.15v-.13l-.22-.15V259l-.15-.08v-.07l-.07-.07v-.13l-.3-.22v-.16c-.12-.09-.25-.18-.37-.28v-.14h-.12c-.04-.07-.09-.14-.13-.21l-.13-.07v-.14l-.19-.14-.19-.27H583v-.12l-.55-.48c-.43-.59-.95-1.02-1.45-1.52-.53-.53-.98-1.08-1.59-1.52-.16-.18-.32-.37-.48-.53h-.14l-.35-.45h-.13l-.3-.37h-.13l-.28-.3h-.13l-.22-.3h-.12c-.05-.07-.1-.15-.15-.22h-.15l-.19-.26-.19-.06c-.02-.04-.04-.09-.06-.13h-.15c-.03-.05-.05-.1-.08-.15h-.1c-.05-.07-.1-.15-.15-.22l-.22-.07c-.03-.05-.05-.1-.07-.15h-.15c-.03-.05-.05-.1-.07-.15l-.22-.07h0-.15c-.05-.07-.1-.15-.15-.22h-.07c-.03-.05-.05-.1-.07-.15l-.22-.07v-.07h-.15c-.03-.05-.05-.1-.07-.15l-.22-.07v-.04l-.26-.07c-.02-.05-.04-.09-.07-.14l-.2-.07v-.07l-.26-.07c-.02-.05-.04-.09-.07-.14h-.13c-.02-.05-.04-.09-.07-.14l-.26-.07c-.02-.05-.04-.09-.07-.14l-.39-.14c-.02-.05-.04-.09-.07-.14l-.39-.14c-.02-.05-.04-.09-.07-.14h-.23l-.15-.15h-.1v-.07h-.15 0-.15c-.03-.05-.05-.1-.08-.15h-.14l-.15-.15h-.16v-.07h-.07v-.07h-.15v-.07h-.15v-.07h-.15v-.07h-.15v-.07h-.15v-.07h-.07v-.07l-.3-.07v-.01h-.15v-.07h-.22v-.07l-.45-.15v-.07h-.07v-.07h-.22V246h-.15v-.07h-.15v-.07h-.15v-.07h-.22v-.07h-.07v-.07h-.22 0-.15v-.07h-.15v-.07l-.37-.07v-.09h-.15v-.07h-.22v-.07h-.15v-.07l-.6-.15v-.07h-.15v-.07l-.62-.14c-.68-.27-1.51-.51-2.22-.76l-1.04-.21v-.06l-.9-.14c-.58-.19-1.33-.3-1.93-.48l-.76-.07v-.09h-.45v-.07h-.45v-.07h-.37v-.07l-1.12-.07v-.01h-.6v-.07h-.67v-.07h-.82v-.07h-1.04c-.43-.13-1.16.06-1.59-.07-.55-.17-2.21-.16-2.77 0-.42.13-1.08-.04-1.45.07l-1.66.07v.07h-.6v.07h-.52v.07h-.45v.07h-.49c-.67.18-1.51.26-2.15.45h-.35 0l-1.38.3c-.71.27-1.53.53-2.22.82h-.21v.07h-.22v.07h-.22v.07h-.22 0-.07v.07l-.45.07v.07h-.15v.07h-.15v.07h-.15v.07h-.22v.07l-.3.07v.07h-.15v.07l-.3.07v.07h-.22v.07l-.3.07v.01h-.15v.07h-.22v.07h-.07v.07l-.3.07v.09h-.15v.11h-.15v.07h-.07v.07h-.15v.07h-.15v.07h-.15v.07h-.15v.07h-.15v.07h-.15 0-.15l-.15.15h-.09c-.03.05-.05.1-.08.15h-.13l-.15.15h-.16v.07h-.07v.07h-.15c-.03.05-.05.1-.08.15h-.15 0-.15c-.03.05-.05.1-.08.15l-.45.15c-.03.05-.05.1-.08.15h-.07v.07h-.15c-.03.05-.05.1-.07.15l-.22.07v.08l-.3.08c-.03.05-.05.1-.08.15h-.15c-.03.05-.05.1-.08.15h-.08l-.07.07h-.14c-.03.05-.05.1-.08.15h-.13c-.03.05-.05.1-.08.15h-.1c-.03.05-.05.1-.08.15h-.15 0l-.22.07c-.03.05-.05.1-.07.15h-.15c-.05.07-.1.15-.15.22h-.11c-.03.05-.05.1-.08.15h-.13c-.05.07-.1.15-.15.22h-.13c-.03.05-.05.1-.08.15h-.12c-.03.05-.05.1-.07.15l-.22.07c-.05.07-.1.15-.15.22h-.12l-.21.22h-.13c-.05.07-.1.15-.15.22h-.13l-.21.22h-.13l-.22.3h-.12l-.3.37h-.13l-.28.3h-.12l-.37.45h-.12l-.28.3h-.07v-7.92H488.7v174.52c.64-.32 1.27-.7 1.88-1.04h.14v-.07h.15v-.07h.15v-.07h.07v-.07h.15v-.07h.15v-.07h.15v-.07h.15v-.07h.15v-.07h.15v-.07h.07v-.07l.3-.07v-.03l.22-.07v-.06l.45-.15v-.08l.45-.14v-.07h.15v-.07h.07v-.07h.15 0 .15v-.07l.3-.07v-.07h.15v-.07h.15v-.07h.15v-.07h.07v-.07l.3-.07v-.07l.3-.07v-.09h.14c1.8-.97 3.7-1.87 5.5-2.84l.41-.14v-.01h.15v-.07h.15v-.07h.15v-.07h.15v-.07h.07v-.07l.3-.07v-.08l.3-.07v-.06l.28-.07c2.36-1.27 4.86-2.42 7.22-3.68l.42-.14v-.09h.07v-.07h.15v-.07h.15 0 .15v-.07h.15v-.07l.3-.07v-.1l.22-.07v-.08l.28-.07c1.77-.95 3.65-1.82 5.42-2.77l.28-.07v-.07h.15v-.07h.15v-.07h.07v-.07h.15v-.07l.3-.07v-.04l.3-.07v-.05h.15v-.07h.07v-.07h.15v-.07h.15v-.07h.15v-.07h.15v-.07l.3-.07v-.06l.22-.07v-.07l.37-.14v-.06l.45-.15v-.06l1.12-.48V365.3c.23.14.44.3.62.48.02.05.05.09.07.14l.21.07a3.04 3.04 0 0 0 .28.33h.14l.21.3h.13l.22.3h.12c.05.07.1.15.15.22h.13l.14.15h.13c.05.07.1.15.15.22h.13c.05.07.1.15.15.22h.13l.07.07h.11c.05.07.1.15.15.22h.15c.02.05.05.1.07.15l.22.07v.07h.15c.02.05.05.1.07.15l.22.07v.07h.07c.02.04.05.09.08.13l.3.06c.02.04.05.09.08.13l.22.06v.02h.15v.07h.13c.02.05.04.1.07.15l.27.07c.02.05.04.1.07.15h.13v.07h.15c.02.05.05.1.08.15l.45.15c.02.05.05.1.08.15h.06l.14.07h.1v.07h.15v.07h.14c1.5.94 3.33 1.58 5.03 2.32h.21v.07h.22v.07h.22v.07h.22v.07h.21c1.09.43 2.36.73 3.52 1.1l.62.07c.87.3 1.98.35 2.9.62h.53v.07h.45v.07h.52v.08l2.32.14c.41.12 1.11-.05 1.52.07.48.14 1.87.09 1.87.09h.71v-.07l2.76-.07v-.09h.82v-.07h.67v-.07h.6v-.07h.56c.93-.26 2.09-.27 3-.54l.7-.07v-.07h.3v-.07l.6-.07v-.07l.67-.07v-.07l.52-.07v-.07l.75-.14v-.07l.45-.06v-.06h.22v-.07h.22V373h.3v-.07h.15v-.07h.22v-.07h.22v-.07h.22v-.07h.22 0 .22v-.07l.6-.15v-.07h.07v-.07l.45-.07v-.07h.15v-.08l.37-.07v-.07l.37-.07v-.08h.15v-.07h.22v-.05l.3-.07v-.03h.15v-.07l.3-.07v-.07h.22v-.07l.45-.14v-.09h.07v-.07h.22v-.07h.15v-.06l.22-.07v-.1h.15v-.07h.15v-.07h.15 0 .15v-.07h.15v-.07l.3-.07v-.1l.22-.07v-.07h.15v-.07h.15l.15-.15h.11c.02-.05.05-.1.08-.15h.11l.15-.15h.15 0 .14c.02-.04.04-.09.07-.14l.41-.14c.02-.04.04-.09.07-.14l.27-.07c.02-.04.04-.09.07-.14l.27-.07c.02-.04.04-.09.07-.14h.12v-.07h.15c.02-.05.05-.1.08-.15l.22-.07v-.08l.3-.08c.02-.05.05-.1.08-.15h.15c.02-.05.05-.1.08-.15h.09c.02-.05.05-.1.08-.15h.13c.02-.05.05-.1.08-.15h.15 0l.22-.07c.02-.05.05-.1.07-.15h.15c.05-.07.1-.15.15-.22h.08c.02-.05.05-.1.08-.15h.13c.05-.07.1-.15.15-.22h.13c.02-.05.05-.1.08-.15h.14l.14-.15h.13c.05-.07.1-.15.15-.22h.13c.05-.07.1-.15.15-.22h.12l.22-.3h.13l.21-.22h.13l.22-.3h.1l.3-.37h.15c.05-.07.1-.15.15-.22l.22-.15h0 .13l.38-.45h.14l.83-.97h.14l1.04-1.08.4-.35v-.14l.57-.48.21-.28.12-.07v-.15l.52-.46V360l.45-.37v-.12l.15-.08v-.06l.22-.15v-.13l.22-.21v-.14l.15-.08v-.06l.15-.08v-.13l.3-.22v-.12l.3-.22v-.12l.22-.15v-.13l.15-.14v-.13l.22-.15v-.13l.15-.08v-.15l.22-.14c.02-.07.05-.14.08-.21l.15-.07v-.14l.15-.07c.02-.07.05-.14.07-.21h0v-.14l.15-.07v-.11l.22-.15v-.16l.15-.07v-.14l.15-.07c.02-.07.05-.14.08-.21h0c.02-.09.05-.18.08-.28l.15-.07v-.14l.15-.07v-.1l.15-.08v-.11l.15-.07v-.14h0v-.14l.14-.07c.02-.09.05-.18.07-.28l.14-.07c.02-.09.05-.18.07-.28l.14-.07c.02-.09.05-.18.07-.28l.14-.07c.02-.09.05-.18.07-.28l.14-.07c.05-.14.09-.28.14-.41l.14-.07v-.19l.15-.14v-.14h.07v-.14l.15-.07v-.12l.15-.14v-.14h.08l.15-.41.15-.07a2.76 2.76 0 0 1 .08-.27h0v-.15h.07v-.15h.07v-.15h.07v-.15h.07v-.07h.07c.02-.1.05-.2.07-.3h.07v-.15h.07v-.15h0v-.15h.07v-.07h.07l.15-.45h.07v-.22h.07v-.15h.07v-.07h.07l.15-.45h.07v-.22h.07c.02-.1.05-.2.07-.3h0v-.15h.07v-.15h.07c.02-.1.05-.2.07-.3h.07v-.22h.07c.02-.1.05-.2.07-.3h.07v-.15h.07c.02-.1.05-.2.07-.3h.07v-.22h.07v-.07h.05c.02-.16.05-.28.07-.37h.03v-.22h.07v-.15h.07v-.22h.07v-.07h.07c.02-.15.05-.3.07-.45h.07v-.15h.07v-.22h.07v-.15h.07c.04-.2.09-.4.13-.6h.1v-.15h.07v-.15h.07v-.22h0v-.22h.07v-.22h.08c.02-.15.05-.3.07-.45h.09l.07-.37h.07v-.22h.07v-.15h.07v-.22h.07v-.22h.07v-.22h.07c.02-.15.05-.3.07-.45h.07v-.22h.07l.15-.75h.02l.06-.45h.06V337h.08l.07-.45h.07c.02-.19.05-.38.07-.56.3-.83.48-1.85.76-2.7l.21-1.25c.34-1.09.42-2.41.76-3.53v-.42c.1-.36.3-1.25.3-1.25v-.43c.13-.43.17-1.06.3-1.49v-.5l.37-2.97v-.75h.07v-.75h.07v-.82h.07v-.97h.07v-1.05h0l.07-2.08v-.97c.14-.46.07-1.22.07-1.8v-3.49l.28.03zm-34.09 4.22v1.99h-.07v.77l-.07 1.54h-.07l-.15 2.32h-.07v.52h-.07v.52h0v.55l-.78 4.29c-.22.67-.4 1.49-.64 2.14v.26h-.07v.22h-.07v.3h-.07v.22h-.07v.22h-.07v.15h-.07v.22h-.07v.22h0v.22h-.07v.15h-.07c-.04.2-.09.4-.13.6h-.1v.22h-.07v.15h-.07v.15h-.07v.22h-.07v.15h-.07v.15h-.07v.15h-.07v.22h-.07c-.03.1-.05.2-.07.3h0v.15h-.07v.22h-.07v.07h-.07c-.03.1-.05.2-.07.3h-.07v.15h-.07v.15h-.07v.15h-.07v.15h-.07v.07h-.07v.15h-.07v.15h0v.14l-.15.14v.15l-.3.11-.15.42-.15.07v.14h-.07v.14l-.15.07v.12l-.07.07v.12l-.15.07c-.03.1-.05.2-.07.3l-.22.15v.12l-.15.08v.13l-.15.08v.14l-.15.14v.13l-.3.22v.12l-.3.22v.13l-.37.28v.14l-1.15 1.11-.35.41h-.14l-.28.3h-.13l-.22.3h-.12c-.05.07-.1.15-.15.22h-.13c-.05.07-.1.15-.15.22h-.13c-.03.05-.05.1-.08.15h-.12c-.03.05-.05.1-.08.15l-.22.07v.07h-.15 0-.15c-.03.05-.05.1-.08.15l-.3.08c-.03.05-.05.1-.08.15h-.07l-.15.15h-.15v.07h-.15v.07h-.07v.07h-.15v.07h-.15v.07h-.15v.03l-.37.14v.05h-.22v.07h-.15v.07h-.22v.07h-.15v.07h-.15v.07h-.22v.07h-.22v.07h-.22v.07l-.48.07c-1.37.49-3.06.69-4.9.69-.68 0-1.58.09-2.14-.07l-1.66-.07v-.09h-.67v-.07h-.45v-.07h-.45v-.07h-.45v-.07h-.37v-.07h-.3v-.07h-.37 0-.37v-.07h-.22v-.07h-.3v-.07h-.3v-.07h-.3v-.07l-.52-.07v-.09h-.22v-.07h-.15v-.07h-.3v-.07h-.22v-.07h-.15v-.07h-.22v.07h-.22v-.07h-.15v-.18l-.37-.07v-.05h-.15v-.07h-.22v-.07h-.22v-.07l-.3-.07v-.07h-.15v-.07l-.3-.07V341h-.22v-.07h-.15v-.07l-.3-.07v-.07h-.07 0-.15v-.07h-.15v-.07h-.15v-.07h-.15v-.07h-.15v-.07h-.07v-.07h-.15v-.07h-.16l-.14-.07h-.08c-.03-.05-.05-.1-.08-.15l-.45-.15c-.03-.05-.05-.1-.08-.15h-.15v-.07h-.15c-.03-.05-.05-.1-.08-.15l-.3-.08c-.03-.05-.05-.1-.08-.15h-.09c-.03-.05-.05-.1-.08-.15h-.13c-.03-.05-.05-.1-.08-.15h-.15 0l-.22-.07c-.03-.05-.05-.1-.07-.15h-.15c-.05-.07-.1-.15-.15-.22h-.08c-.03-.05-.05-.1-.08-.15h-.13c-.05-.07-.1-.15-.15-.22h-.15l-.19-.26-.19-.06c-.02-.04-.04-.09-.06-.13H527c-.05-.07-.1-.15-.15-.22h-.06c-.03-.05-.05-.1-.08-.15h-.14l-.42-.45h-.14l-.97-1.05-1.06-1.04v-.14l-.45-.35v-.13l-.37-.3v-.13l-.22-.21v-.13l-.22-.15v-.15l-.3-.21v-.14h-.07c-.08-.09-.05-.13-.15-.21v-48l.15-.07v-.12l.3-.22v-.12l.3-.22v-.13l.22-.21v-.13l.37-.3v-.12l.37-.3v-.14l.45-.38v-.22l.82-.75v-.14l.34-.27.55-.61h.14l.68-.75h.14l.37-.45h.12l.21-.22h.13l.22-.3h.12c.05-.07.1-.15.15-.22h.13l.14-.15h.13c.02-.05.05-.1.08-.15h.17c.02-.05.05-.1.08-.15l.22-.08v-.07h.15c.02-.05.05-.1.08-.15h.09c.02-.05.05-.1.08-.15h.16c.02-.04.04-.09.07-.13l.26-.07c.02-.04.04-.09.07-.13l.26-.07c.02-.04.04-.09.07-.13h.15l.15-.15h.15v-.07h.15v-.07h.07c.02-.05.05-.09.07-.14l.67-.21v-.07l.45-.14v-.04h.07v-.07h.22v-.06l.22-.07v-.07l.45-.07v-.03h.15v-.07h.22v-.07h.15v-.07h.22v-.07h.22v-.07h.22v-.07h.22v-.07h.22v-.07l.45-.07v-.07h.3v-.07l.52-.07v-.03l1.05-.14v-.07h.37v-.07h.45v-.07h.45v-.07h.6v-.07h.67v-.07h.07c.28-.04.66.07.83-.07 2.48.01 4.93-.07 6.78.54l.83.13v.07h.22v.07h.22v.07h.22v.07h.15v.07l.45.07v.07h.15v.07h.22v.07h.07 0 .22v.07l.3.07v.07h.15v.07l.45.14v.09h.15 0l.45.15c.02.05.05.1.08.15l.45.15c.02.05.05.1.08.15l.3.08c.02.05.05.1.08.15h.15c.02.05.05.1.08.15h.01c.02.05.05.1.08.15h.13c.02.05.05.1.08.15h.14l.07.07h.13c.05.07.1.15.15.22h.13c.05.07.1.15.15.22h.12l.22.3h-.06l.45.45h.15l.75.7.75.58v.13l.45.32v.29l.37.3v.12l.22.15v.13l.22.21v.14l.15.08v.13l.22.15v.12l.15.07c.02.07.05.14.07.21h.07v.19l.13.07c.02.07.04.13.07.2h.07c.02.09.04.17.07.26l.13.07c.02.07.04.13.07.2h.07v.15h.07v.14l.15.07v.11l.15.14v.14h0v.14l.15.07v.16l.15.15v.15h.07v.07h.07v.15h.07v.15h.1v.15h.07v.15h.07v.15h.07v.15h.07c.02.1.05.2.07.3h0v.07h.07v.22h.07c.02.1.05.2.07.3h.07v.15h.07v.15h.07c.02.1.05.2.07.3h.07v.22h.07v.15h.07v.22h.07v.07h.07c.02.15.05.3.07.45h.07v.15h.07c.04.2.09.4.13.6h.02v.15h.07v.22h.07v.15h.07v.22h.07v.22h.07v.3h.07v.22h.07v.15h.07v.22h.06l.06.45h.05l.14.82h.07l1.03 4.82v.42c.12.41.3 1.38.3 1.38v.46c.22.75.16 1.78.37 2.54v.69h0v.82h.07v.9h.07v.98h.07v1.42h0v2.23c.18.38.15 1.03.15 1.52 0 .85.13 2.13-.07 2.84l.15.01zm-231.9-37.67h40.61c.4-.12 1.08-.07 1.59-.07l6.43-.07v-.07h2.69v-.07h.34s1.43.07 1.94-.07l2.56-.07c.29 0 .87.08 1.04-.08h.92v.08l-.45.42v.15l-.52.46v.16l-.52.46v.12l-.56.49c-.71.98-1.61 1.75-2.32 2.74l-.63.56v.09l-.6.52v.13l-.52.46v.16l-.52.46v.16l-.6.53v.13l-.6.52v.1l-.6.52v.13l-.45.38v.17l-.52.46v.16l-.52.46v.13l-.52.45v.12l-.48.42c-.6.84-1.33 1.52-1.94 2.35l-.42.35v.12l-.45.37v.14l-.45.38v.14l-.45.37v.12l-.07.07v.06l-.22.15v.12l-.45.37v.11l-.37.3v.13l-.37.35v.14l-.3.28v.13l-.37.3v.11l-.45.37v.11l-.37.3v.13l-.3.28v.13l-.37.3v.11l-.45.37v.12l-.07.07v.06l-.22.15v.13l-.22.15v.06l-.07.07v.12l-.45.37v.11l-.37.3v.12l-.37.3v.13l-.37.35v.14l-.3.28v.13l-.37.3v.11l-.45.37v.09l-.37.28v.14h0l-.15.21-.15.07v.14l-.22.14v.1l-.07.07v.12l-.45.37v.11l-.37.3v.12l-.37.3v.13l-.37.35v.14l-.3.28v.13l-.37.3v.11l-.45.37v.11l-.37.3v.13l-.3.28v.14l-.37.35v.11l-.37.28v.14h-.08l-.15.21-.15.07v.14l-.22.14v.09l-.15.08v.14l-.37.35v.14l-.3.28v.13l-.37.3v.11l-.45.37v.11l-.37.3v.13l-.3.28v.12l-.45.37v.12l-.07.07v.06l-.22.15v.12l-.37.3v.11l-.45.37v.12l-.3.28v.13l-.37.3v.12l-.37.3v.13l-.37.35v.14l-.3.28v.13l-.37.3v.11l-.45.37v.14l-.35.28c-.7.97-1.52 1.8-2.22 2.77l-.35.28v.14h0l-.15.21-.15.07v.14l-.45.35v.11l-.37.3v.13l-.3.28v.14l-.37.35v.13l-.37.3v.12l-.37.3v.11l-.45.37v.12l-.3.28v.13l-.37.3v.12l-.37.3v.13l-.37.35v.14l-.3.28v.13l-.37.3v.11l-.45.37v.1l-.37.28v.14h-.02s-.09.16-.14.23l-.14.07v.14l-.37.35v.03l-.37.3v.12l-.37.3v.11l-.45.37v.12l-.07.07v.06l-.22.15v.13l-.3.28v.13l-.37.3v.11l-.45.37v.11l-.37.3v.13l-.3.28v.14l-.37.35v.13l-.37.3v.12l-.37.3v.11l-.45.37v.12l-.3.28v.14l-.3.28v.12l-.45.37v.12l-.15.08v.06l-.22.15v.14l-.37.28v.14h-.03l-.14.2-.13.07v.14l-.37.35v.13l-.37.3v.12l-.37.3v.11l-.45.37v.12l-.3.28v.14l-.3.28v.12l-.45.37v.11l-.37.3v.13l-.3.28v.12l-.45.37v.11l-.37.3v.12l-.37.3v.13l-.3.28v.14l-.37.35v.13l-.37.3v.12l-.37.3v.11l-.45.37v.12l-.3.28v.13l-.37.3v.08l-.41.35c-.14.2-.11.27-.34.42v29.12h101.57v-30.39H390.7v.07h-.76c-2.5 0-4.96.03-7.33.15h-2.44v.07h-.39s-1.38-.07-1.87.06l-2.56.07c-.29 0-.87-.08-1.04.09h-.9l.69-.85.31-.21v-.14l.52-.48v-.12l.6-.52v-.13l.52-.46v-.17l.45-.38v-.17l.52-.46v-.13l.6-.52v-.1l.6-.52v-.13l.52-.46v-.16l.52-.46v-.17l.45-.38v-.16l.57-.48c.62-.83 1.37-1.52 1.99-2.35l.5-.42v-.14h.05c.04-.07.09-.14.13-.21l.19-.14v-.14l.45-.42v-.14h.11l.14-.19.2-.14v-.14l.37-.35v-.12l.45-.37v-.11l.45-.37v-.11l.45-.37v-.12l.3-.28V328l.37-.35v-.13l.37-.3v-.12l.37-.3v-.12l.37-.3v-.13l.3-.28v-.13l.37-.3v-.12l.3-.22v-.13l.3-.28v-.13l.3-.22v-.13l.15-.08v-.06l.15-.08v-.14l.3-.28v-.13l.3-.22v-.12l.3-.22v-.13l.3-.28v-.13l.3-.22v-.12l.37-.3v-.13l.22-.21v-.13l.3-.22v-.12l.37-.3v-.13l.22-.21v-.13l.37-.3v-.13l.22-.21v-.14l.15-.08v-.06l.15-.08v-.12l.37-.3v-.12l.15-.08v-.07l.07-.07v-.13l.37-.3v-.12l.3-.22v-.13l.3-.28v-.13l.3-.22v-.12l.3-.22v-.13l.3-.28v-.13l.3-.22v-.12l.37-.3v-.12l.3-.22v-.13l.15-.08v-.07l.07-.07v-.13l.37-.3v-.13l.22-.21v-.13l.37-.3v-.12l.3-.22v-.13l.22-.21v-.13l.37-.3v-.12l.3-.22v-.12l.37-.3v-.12l.3-.22v-.13l.07-.07v-.07l.15-.08v-.12l.35-.28c1.06-1.47 2.28-2.77 3.34-4.24l.35-.28v-.12l.3-.22v-.13l.22-.21v-.13l.37-.3v-.13l.22-.21v-.13l.37-.3v-.12l.3-.22v-.13l.22-.21v-.13l.37-.3v-.12l.3-.22v-.13l.3-.28v-.13l.3-.22v-.12l.37-.3v-.13l.22-.21v-.13l.3-.22v-.12l.37-.3v-.12l.15-.08v-.07l.07-.07v-.13l.37-.3v-.12l.3-.22v-.13l.22-.21v-.12l.35-.28c1.06-1.47 2.28-2.77 3.34-4.24l.35-.28V294l.3-.22v-.12l.3-.22v-.12l.37-.3v-.13l.22-.21v-.13l.37-.3v-.12l.3-.22v-.13l.22-.21v-.13l.37-.3v-.12l.3-.22v-.13l.3-.28v-.13l.3-.22v-.13l.15-.08v-.07l.07-.07v-.13l.37-.3v-.12l.3-.22v-.12l.37-.3v-.13l.22-.21v-.13l.3-.22v-.13l.3-.28v-.14l.15-.08v-.06l.15-.08v-.12l.35-.28c1.06-1.47 2.28-2.77 3.34-4.24l.35-.28V282l.22-.21v-.13l.3-.22v-.12l.37-.3v-.13l.22-.21v-.13l.37-.3v-.12l.3-.22v-.12l.3-.22v-.12l.37-.3v-.13l.22-.21v-.13l.37-.3v-.12l.3-.22v-.13l.22-.21v-.13l.37-.3v-.13l.07-.07V277l.15-.08v-.12l.37-.3v-.12l.3-.22v-.12l.3-.22v-.13l.3-.28v-.13l.3-.22v-.12l.37-.3v-.13l.22-.21v-.14l.15-.08v-.06l.15-.08v-.12l.37-.3v-.13l.07-.07v-.07l.15-.08v-.12l.37-.3v-.12l.3-.22v-.13l.22-.21v-.13l.37-.3v-.13l.22-.21v-.13l.37-.3v-.12l.3-.22v-.13l.22-.21v-.13l.37-.3v-.12l.3-.22v-.12l.22-.15V244.8H332.75v30.46l-.02.09zm111.81 97.09h33.53V244.88h-33.53v127.56h0z" fill-rule="evenodd"/><path d="M612 205.97c0 6.21-4.88 11.09-11.22 11.09-6.35 0-11.29-4.88-11.29-11.09s5.01-10.95 11.29-10.95S612 199.9 612 205.97zm-19.71 0c0 4.88 3.61 8.75 8.55 8.75s8.35-3.87 8.35-8.68-3.54-8.82-8.42-8.82-8.48 3.94-8.48 8.75h0zm6.76 5.75h-2.54v-10.95c1-.2 2.4-.33 4.2-.33 2.07 0 3 .33 3.8.8.6.47 1.07 1.34 1.07 2.4 0 1.2-.93 2.14-2.26 2.54v.14c1.06.4 1.66 1.2 2 2.67.33 1.67.53 2.34.8 2.74h-2.73c-.33-.4-.53-1.4-.86-2.67-.2-1.2-.87-1.74-2.26-1.74h-1.2l-.02 4.4h0zm.08-6.19h1.2c1.4 0 2.54-.47 2.54-1.6 0-1-.73-1.67-2.34-1.67-.67 0-1.14.07-1.4.13v3.14z"/></svg>