<?xml version="1.0" encoding="utf-8"?>
<!-- Generator: Adobe Illustrator 25.4.1, SVG Export Plug-In . SVG Version: 6.00 Build 0)  -->
<svg version="1.1" id="Layer_1" xmlns="http://www.w3.org/2000/svg" xmlns:xlink="http://www.w3.org/1999/xlink" x="0px" y="0px"
	 viewBox="0 0 563.4 136.4" style="enable-background:new 0 0 563.4 136.4;" xml:space="preserve">
<style type="text/css">
	.st0{fill:none;stroke:#66CCFF;stroke-miterlimit:10;}
	.st1{fill:#66CCFF;}
</style>
<polygon class="st0" points="14,135.7 0.5,130.3 0.5,5.5 14,0.7 "/>
<path class="st1" d="M219.8,113.1c-3.1,1.8-10,3.7-19,3.7c-25.6,0-38.7-18.6-38.7-43.2c0-29.5,18-45.9,40.4-45.9
	c8.7,0,15.3,2,18.2,3.8L217.3,47c-4.4-2.1-9.2-3.2-14-3.2c-13.3,0-23.6,9.4-23.6,28.6c0,17.3,8.8,28.2,23.7,28.2
	c4.8,0,9.5-1,13.9-2.8L219.8,113.1z"/>
<path class="st1" d="M249.1,93.4l-5.3,22.2h-17.3l22.6-86.3h22l22.9,86.3h-18l-5.7-22.2C270.3,93.4,249.1,93.4,249.1,93.4z
	 M267.9,78.8l-4.6-18.3c-1.3-5.1-2.6-11.5-3.7-16.7h-0.2c-1.1,5.1-2.2,11.7-3.4,16.7l-4.4,18.3H267.9L267.9,78.8z"/>
<path class="st1" d="M303.8,115.6V29.2h19.5l15.4,31.7c4.6,9.6,8.6,19.5,12.1,29.6h0.3c-1.1-11.4-1.4-23.1-1.4-36V29.2h15.4v86.3
	h-17.6l-15.8-33.3c-4.4-9.2-9.2-20.3-12.8-30.5l-0.4,0.1c0.4,11.4,0.7,23.6,0.7,37.6v26h-15.4V115.6z"/>
<path class="st1" d="M397,115.6l-23.7-86.3h18.3l9,36.5c2.5,10.3,4.8,20.1,6.6,30.9h0.3c1.9-10.4,4.2-20.6,6.7-30.5l9.4-36.9h17.9
	l-25,86.3H397z"/>
<path class="st1" d="M460.7,93.4l-5.3,22.2H438l22.6-86.3h21.9l22.9,86.3h-18l-5.7-22.2C481.8,93.4,460.7,93.4,460.7,93.4z
	 M479.4,78.8l-4.6-18.3c-1.3-5.1-2.6-11.5-3.7-16.7h-0.2c-1.1,5.1-2.2,11.7-3.4,16.7l-4.4,18.3H479.4z"/>
<path class="st1" d="M516,95.4c5.6,3.4,12,5.2,18.5,5.4c7.7,0,11.7-3.7,11.7-9.4c0-5.4-3.5-8.4-12.4-12.2
	c-12.3-5-20.3-12.9-20.3-25.5c0-14.7,10.5-26,28-26c6.6-0.1,13,1.4,18.9,4.3l-3.7,15.7c-4.7-2.7-10-4.1-15.5-4.1
	c-7.2,0-10.8,3.8-10.8,8.3c0,5.5,4.2,7.9,13.7,12.2c13.1,5.6,19.2,13.6,19.2,25.7c0,14.5-9.5,26.8-29.8,26.8c-8.5,0-16.8-2.6-21-5.3
	L516,95.4z"/>
<path class="st1" d="M16.3,0.4v135.9l131.1-6V13.5L16.3,0.4z M75.3,119.7H32.7V22.1h41.2v18.1h-26v20.3h24.5v18H47.9v23.2h27.4
	V119.7z M133.2,119.7H81.3v-11.8L113.1,41v-0.6H84.3V22.1h48.4v12.8l-31.1,66v0.6h31.6L133.2,119.7L133.2,119.7z"/>
</svg>
