<?xml version="1.0" encoding="utf-8"?>
<!-- Generator: Adobe Illustrator 25.4.1, SVG Export Plug-In . SVG Version: 6.00 Build 0)  -->
<svg version="1.1" id="Layer_1" xmlns="http://www.w3.org/2000/svg" xmlns:xlink="http://www.w3.org/1999/xlink" x="0px" y="0px"
	 viewBox="0 0 921.3 423.5" style="enable-background:new 0 0 921.3 423.5;" xml:space="preserve">
<style type="text/css">
	.st0{fill:#00ADEE;}
	.st1{fill:#00A551;}
	.st2{fill:#EB008B;}
	.st3{fill:#F6921E;}
	.st4{fill:#FFF100;}
	.st5{fill:#231F20;}
	.st6{fill:#754C28;}
	.st7{fill:#808184;}
</style>
<path class="st0" d="M230.1,59.2c3.1,7.7,4.6,15.9,5.7,24s1.7,16.3,2.1,24.6c0.4,8.3,0.3,16.7-0.3,25c-0.6,8.4-1.9,16.7-3.9,24.9
	l-2.4,10.2l-11.3-3.7c-5.9-1.9-11.2-3.9-16.7-6.2s-10.8-4.6-16.1-7.2c-11-5.2-21.4-11.6-31.1-19c-5.2-4-10.1-8.5-14.4-13.4
	c-2.4-2.7-4.5-5.6-6.5-8.6c-1-1.6-2-3.3-2.9-4.9l-0.5-0.9l-0.6-1.2l-1.2-2.3c-5.9-11.9-10.2-25.1-11-39.5
	c-0.4-7.5,0.4-15.1,2.4-22.3c2.2-8.1,6.2-15.6,11.6-22c5.9-7,13.7-12.2,22.5-14.9c8.4-2.5,17.3-2.5,25.6-0.1
	c7.2,2.2,13.8,5.9,19.4,10.9c5,4.4,9.4,9.4,13.1,14.9C220.1,37.5,225.7,48.1,230.1,59.2L230.1,59.2L230.1,59.2z M226.5,60.9
	c-5.2-9.6-13.2-17.5-22.9-22.4c-4.5-2.2-9.3-3.8-14.3-4.5c-4.1-0.6-8.3-0.5-12.4,0.4c-2.7,0.6-5.3,1.8-7.5,3.6
	c-1.7,1.4-3.2,3-4.3,4.8c-2.6,3.9-5,10.6-5.9,18.7c-1,8.7-0.2,17.6,2.4,26l0.5,1.6l0.2,0.8l0.4,1c0.3,0.9,0.6,1.7,1,2.6
	c0.9,1.8,1.9,3.6,3,5.3c2.6,3.8,5.7,7.4,9,10.7c7,7,15.5,13.2,24.3,19.3c4.4,3,9,5.9,13.6,8.6s5.6-0.3,8.2-7.6s5.1-14.9,7-22.6
	c2-7.7,3-15.5,3-23.5C231.6,75.6,230.1,67.7,226.5,60.9L226.5,60.9z"/>
<path class="st1" d="M354.7,147.4c-5.3,3.6-11.2,6-17,8.1s-12,3.9-18.1,5.5c-6.2,1.6-12.4,2.9-18.8,3.8c-6.4,0.9-12.8,1.3-19.3,1.1
	l-8.1-0.2l1-9.1c0.5-4.7,1.1-9,1.9-13.5s1.7-8.8,2.8-13.2c2.2-9.1,5.2-17.9,9.2-26.3c2.2-4.6,4.8-8.9,7.7-13
	c1.6-2.2,3.4-4.3,5.4-6.3c1-1,2.1-2,3.2-3l0.6-0.5l0.8-0.6l1.5-1.2c8.2-6.7,17.6-11.7,27.8-14.7c5.6-1.5,11.3-2.1,17.1-1.8
	c6.4,0.3,12.7,2.1,18.4,5.1c6.2,3.3,11.3,8.3,14.8,14.4c3.2,5.9,4.7,12.5,4.2,19.2c-0.5,5.7-2.2,11.3-5,16.3
	c-2.5,4.5-5.5,8.6-9.1,12.2C369.4,136.4,362.3,142.3,354.7,147.4L354.7,147.4z M352.9,144.9c6.4-5.4,10.9-12.7,13.1-20.8
	c1-3.7,1.3-7.6,1.1-11.5c-0.2-3.2-1-6.3-2.3-9.2c-0.9-2-2.2-3.7-3.9-5c-1.3-1.1-2.7-1.9-4.3-2.5c-3.3-1.3-8.8-2-15-1.4
	c-6.7,0.7-13.2,2.7-19.1,6l-1.1,0.6l-0.5,0.3l-0.7,0.4c-0.6,0.4-1.2,0.7-1.8,1.2c-1.2,0.9-2.4,2-3.5,3.1c-2.4,2.6-4.6,5.5-6.5,8.5
	c-4.1,6.8-7.6,13.9-10.5,21.3c-1.5,3.8-3,7.7-4.2,11.6s1.1,4.2,7,4.9s12,1.4,18.1,1.6c6.1,0.3,12.1-0.2,18.1-1.5
	C342.7,151.4,348.2,148.7,352.9,144.9z"/>
<path class="st2" d="M97.2,147.3c7.8,2.9,14.9,7.3,21.6,11.9s13.2,9.7,19.6,15c6.4,5.3,12.5,11,18.3,17c5.8,6.1,11.1,12.6,15.9,19.6
	l5.9,8.7l-10.3,5.9c-5.4,3-10.4,5.6-15.8,8.2s-10.7,4.9-16.1,7.1c-11.3,4.6-23,8.1-34.9,10.3c-6.5,1.2-13.1,1.7-19.7,1.7
	c-3.6-0.1-7.2-0.4-10.7-1c-1.8-0.3-3.8-0.7-5.6-1.1l-1-0.2l-1.3-0.3l-2.5-0.6c-12.8-3.6-25.4-9.3-36.7-18.4
	C18,226.2,13,220.5,9,214.2c-4.5-7.1-7.4-15-8.5-23.4c-1.2-9.1,0.2-18.3,4-26.7c3.8-7.9,9.7-14.5,17.2-19.1
	c6.4-3.9,13.6-6.3,21.1-7.1c6.6-0.8,13.3-0.6,19.8,0.3C75.1,140.1,86.3,143.5,97.2,147.3L97.2,147.3L97.2,147.3z M96,151.2
	c-10.6-2.6-21.8-2-32,1.9c-4.7,1.8-9.1,4.4-13,7.6c-3.2,2.6-5.9,5.8-8,9.4c-1.4,2.4-2.2,5.2-2.4,8c-0.1,2.2,0.1,4.3,0.6,6.4
	c1.2,4.5,4.5,10.9,9.9,17c5.8,6.6,13,11.9,20.9,15.6l1.5,0.7l0.7,0.3l1,0.4c0.9,0.4,1.6,0.7,2.6,1c1.9,0.6,3.9,1,5.9,1.3
	c4.6,0.6,9.3,0.8,13.9,0.5c9.9-0.5,20.2-2.6,30.6-5c5.2-1.3,10.4-2.7,15.5-4.3s3.6-4.4-0.1-11.2s-7.6-13.8-12.1-20.4
	c-4.3-6.6-9.5-12.7-15.3-18C110.3,157.2,103.4,153,96,151.2L96,151.2L96,151.2z"/>
<path class="st3" d="M98.5,295.7c6.6-5.1,14.1-8.7,21.6-11.9s15.3-6,23.2-8.6c7.9-2.6,16-4.7,24.1-6.4c8.2-1.6,16.6-2.6,25-3
	l10.5-0.4l-0.6,11.9c-0.3,6.2-0.8,11.8-1.5,17.7s-1.5,11.6-2.6,17.5c-2.1,12-5.5,23.7-10,35c-2.5,6.1-5.5,12-9.1,17.5
	c-2,3-4.2,5.9-6.6,8.6c-1.2,1.4-2.6,2.8-3.9,4.1l-0.8,0.7l-0.9,0.9l-1.9,1.7c-9.9,8.9-21.4,16.6-35.1,21.2
	c-7.1,2.4-14.6,3.7-22.2,3.7c-8.4,0-16.7-1.8-24.3-5.3c-8.3-3.8-15.4-10-20.4-17.7c-4.6-7.4-7.1-16-6.9-24.7
	c0.2-7.5,2-14.9,5.2-21.6c2.9-6,6.6-11.5,10.9-16.6C80.2,311.2,89,303,98.5,295.7L98.5,295.7z M101.1,298.7
	c-7.9,7.6-13.3,17.4-15.5,28.1c-0.9,4.9-1.1,10-0.5,15c0.5,4.1,1.7,8.1,3.7,11.8c1.3,2.5,3.2,4.6,5.4,6.3c1.8,1.3,3.7,2.3,5.8,2.9
	c4.4,1.5,11.6,2,19.6,0.7c8.7-1.4,17-4.6,24.4-9.3l1.4-0.9l0.7-0.4l0.8-0.6c0.8-0.5,1.5-1.1,2.2-1.6c1.5-1.3,3-2.8,4.3-4.3
	c3-3.6,5.6-7.4,7.8-11.5c4.8-8.6,8.6-18.5,12.1-28.5c1.7-5,3.2-10.2,4.6-15.4s-1.8-5.4-9.6-5.9s-15.8-0.9-23.7-0.7
	c-7.9,0.1-15.8,1.2-23.4,3.3C113.9,289.8,106.7,293.4,101.1,298.7L101.1,298.7z"/>
<path class="st4" d="M261,380.7c-1.6-5.3-2.5-10.8-2.6-16.4c-0.3-5.5-0.4-11-0.2-16.6c0.1-5.6,0.6-11.2,1.4-16.7
	c0.8-5.6,2.1-11.1,3.8-16.5l2.1-6.7l7.4,3c3.9,1.6,7.3,3.2,10.9,4.9s7,3.6,10.5,5.6c7.1,4,13.8,8.8,19.9,14.2c3.3,2.9,6.3,6.2,9,9.7
	c1.5,1.9,2.8,3.9,4,6.1c0.6,1.1,1.2,2.3,1.7,3.4l0.3,0.6l0.4,0.8l0.7,1.6c3.7,8.5,5.6,17.7,5.5,27c-0.1,5.1-1,10.1-2.6,14.9
	c-1.8,5.3-4.9,10.2-8.8,14.2c-4.3,4.4-9.8,7.5-15.8,8.9c-5.7,1.3-11.7,0.9-17.2-1.1c-4.7-1.8-9-4.6-12.5-8.2
	c-3.1-3.2-5.8-6.7-8-10.6C266.6,395.8,263.4,388.4,261,380.7L261,380.7L261,380.7z M263.5,379.7c3,6.7,8,12.3,14.3,16.1
	c2.9,1.7,6.1,3,9.4,3.7c2.7,0.6,5.6,0.7,8.3,0.3c1.9-0.3,3.6-0.9,5.2-2c1.2-0.8,2.3-1.8,3.1-3c2.5-3.7,4.2-7.9,4.9-12.2
	c1.1-5.8,0.9-11.8-0.4-17.5L308,364l-0.1-0.5l-0.2-0.7c-0.2-0.6-0.3-1.2-0.6-1.8c-0.5-1.3-1.1-2.5-1.8-3.7c-1.6-2.7-3.5-5.2-5.5-7.5
	c-4.7-5.1-9.8-9.8-15.3-14c-2.8-2.2-5.7-4.4-8.7-6.4s-3.8-0.1-5.9,4.7s-4.1,9.8-5.7,14.8c-1.7,5-2.8,10.3-3.1,15.6
	C260.6,369.7,261.4,375,263.5,379.7L263.5,379.7L263.5,379.7z"/>
<path class="st5" d="M240.1,262.8c0,9.5,0,17,0.5,21.1c0.3,2.9,0.9,5,3.9,5.5c1.7,0.2,3.3,0.4,5,0.4c1.3,0,1.7,0.3,1.7,0.8
	c0,0.7-0.7,1-2.2,1c-6.2,0-12.5-0.3-15.1-0.3s-8.8,0.3-12.6,0.3c-1.4,0-2.1-0.2-2.1-1c0-0.5,0.4-0.8,1.5-0.8c1.2,0,2.4-0.1,3.6-0.4
	c2-0.4,2.5-2.6,2.9-5.5c0.5-4.2,0.5-11.6,0.5-21.1v-17.4c0-15.1,0-17.8-0.2-21c-0.2-3.4-1-5-4.3-5.7c-1.3-0.2-2.6-0.3-3.9-0.3
	c-1,0-1.7-0.2-1.7-0.8c0-0.8,0.8-1,2.3-1c2.6,0,5.4,0.1,8,0.1s4.9,0.2,6.2,0.2c3.8,0,23.9,0,26.2-0.1c1.4,0,2.7-0.1,4-0.4
	c0.5-0.3,1-0.5,1.6-0.6c0.4,0.1,0.7,0.5,0.7,0.9c0,0.7-0.5,1.9-0.8,4.4c-0.1,1-0.3,6.9-0.5,8c-0.1,0.8-0.3,1.4-1,1.4s-0.9-0.5-1-1.6
	c0.1-1.3-0.1-2.6-0.6-3.8c-0.7-1.4-2.8-2.9-6.5-3l-15.3-0.3c-0.6,0-0.9,0.3-0.9,1.4V248c0,0.6,0.1,0.9,0.7,0.9l12.7-0.1
	c1.7,0,3.1,0,4.5-0.1c1.9-0.1,3.3-0.5,4.3-1.8c0.5-0.6,0.7-1,1.3-1c0.4,0,0.6,0.3,0.6,0.9s-0.5,3.1-0.8,6.1c-0.2,2-0.4,6.5-0.4,7.2
	c0,0.9,0,1.9-1,1.9c-0.6,0-0.8-0.7-0.8-1.4c-0.1-1-0.3-2.1-0.6-3.1c-0.9-2.1-2.8-3.4-5.1-3.6c-2.5-0.3-13-0.3-14.7-0.3
	c-0.5,0-0.7,0.2-0.7,0.9v8L240.1,262.8z"/>
<path class="st5" d="M285.3,252.2c0-12.8,0-15.2-0.1-17.8c-0.2-2.9-1.1-3.9-3-4.5c-1-0.3-2.1-0.4-3.2-0.4c-0.9,0-1.4-0.2-1.4-1
	c0-0.5,0.7-0.7,2.1-0.7c3.3,0,9.2,0.2,11.7,0.2c2.2,0,7.8-0.2,11.2-0.2c1.1,0,1.8,0.2,1.8,0.7c0,0.8-0.5,1-1.4,1
	c-0.9,0-1.7,0.1-2.6,0.3c-2.4,0.4-3.1,1.6-3.3,4.6c-0.2,2.7-0.2,5-0.2,17.8V267c0,8.1,0,14.9,0.4,18.4c0.3,2.3,0.9,3.6,3.5,4
	c1.5,0.2,3,0.3,4.4,0.3c1,0,1.4,0.5,1.4,0.9c0,0.6-0.7,0.9-1.7,0.9c-5.7,0-11.7-0.3-14.1-0.3c-2,0-7.9,0.3-11.4,0.3
	c-1.1,0-1.7-0.3-1.7-0.9c0-0.4,0.3-0.9,1.4-0.9c1,0,2.1-0.1,3.1-0.3c1.8-0.4,2.3-1.6,2.6-4.1c0.4-3.5,0.4-10.2,0.4-18.3L285.3,252.2
	L285.3,252.2z"/>
<path class="st5" d="M331.1,280c0.2,6.5,1.3,8.5,3,9.1c1.5,0.4,3,0.6,4.6,0.6c1,0,1.5,0.4,1.5,0.9c0,0.7-0.8,0.9-2,0.9
	c-5.7,0-9.7-0.3-11.3-0.3c-0.8,0-5,0.3-9.4,0.3c-1.2,0-2-0.1-2-0.9c0.1-0.6,0.8-1,1.4-0.9c1.3,0,2.7-0.1,4-0.4
	c2.3-0.6,2.6-2.9,2.7-10.2l0.8-50c0-1.7,0.6-2.9,1.5-2.9c1.1,0,2.3,1.3,3.8,2.8c1.1,1.1,14.2,14.5,26.9,26.9
	c5.9,5.9,17.5,17.7,18.8,18.9h0.4l-0.9-37.4c-0.1-5.1-0.9-6.6-3-7.4c-1.5-0.4-3-0.6-4.5-0.5c-1.1,0-1.4-0.4-1.4-0.9
	c0-0.7,0.9-0.8,2.2-0.8c4.6,0,9.2,0.2,11.1,0.2c1,0,4.3-0.2,8.5-0.2c1.2,0,2,0.1,2,0.8c0,0.5-0.5,0.9-1.5,0.9
	c-0.9,0-1.8,0.1-2.7,0.3c-2.4,0.7-3.1,2.2-3.2,6.9l-1,53.1c0,1.9-0.7,2.7-1.4,2.7c-1.4-0.1-2.7-0.7-3.6-1.8
	c-5.5-5-16.3-15.5-25.5-24.3c-9.5-9.1-18.7-19.3-20.4-20.8h-0.3L331.1,280z"/>
<path class="st5" d="M409,252.2c0-12.8,0-15.2-0.1-17.8c-0.2-2.9-1-3.8-3.8-4.6c-1.1-0.2-2.3-0.3-3.5-0.3c-0.9,0-1.5-0.3-1.5-0.9
	s0.7-0.8,2-0.8c4.5,0,10.1,0.2,12.6,0.2c2.8,0,22.1,0.1,23.8,0s3-0.4,3.7-0.5c0.5-0.2,0.9-0.3,1.4-0.4c0.3,0,0.6,0.3,0.6,0.6
	c0,0,0,0.1,0,0.1c-0.4,1.8-0.6,3.6-0.7,5.4c-0.1,0.9-0.3,4.6-0.5,5.6c-0.1,0.4-0.3,1.4-1,1.4s-0.7-0.4-0.7-1.1
	c0-1.1-0.2-2.1-0.6-3.1c-0.7-1.5-1.4-2.7-5.8-3.1c-1.5-0.2-11.9-0.4-13.7-0.4c-0.4,0-0.6,0.3-0.6,0.7c0,0,0,0.1,0,0.1v20.8
	c0,0.5,0.1,0.9,0.6,0.9c2,0,13.3,0,15.3-0.2s3.4-0.4,4.2-1.3c0.7-0.6,1-1.1,1.4-1.1c0.4,0.1,0.7,0.5,0.7,0.9c0,0.5-0.2,1.9-0.7,6.1
	c-0.2,1.7-0.4,5.1-0.4,5.6s-0.1,1.9-0.9,1.9c-0.4,0.1-0.7-0.2-0.8-0.5c0-0.1,0-0.1,0-0.2c-0.1-0.9-0.1-2-0.3-3.1
	c-0.5-1.7-1.6-3-4.9-3.3c-1.6-0.2-11.5-0.4-13.7-0.4c-0.4,0-0.5,0.4-0.5,0.9v6.7c0,2.9-0.1,10,0,12.5c0.2,5.7,2.9,7,11.8,7
	c2.3,0,6-0.1,8.2-1.1s3.1-2.8,3.8-6.2c0.2-0.9,0.4-1.3,1-1.3s0.8,1.1,0.8,2c-0.1,3.1-0.5,6.2-1.2,9.3c-0.6,2.2-1.4,2.2-4.7,2.2
	c-6.5,0-11.8-0.1-16.1-0.3s-7.5-0.2-10.1-0.2c-1,0-2.9,0.1-5,0.1s-4.3,0.2-6,0.2c-1.1,0-1.7-0.3-1.7-0.9c0-0.4,0.3-0.9,1.4-0.9
	c1,0,2.1-0.1,3.1-0.3c1.8-0.4,2.3-2,2.6-4.5c0.4-3.6,0.4-10.2,0.4-17.9L409,252.2L409,252.2z"/>
<path class="st5" d="M464.1,252.2c0-12.8,0-15.2-0.1-17.8c-0.2-2.9-1-3.8-3.8-4.6c-1.1-0.2-2.3-0.3-3.5-0.3c-0.9,0-1.5-0.3-1.5-0.9
	s0.7-0.8,2-0.8c4.6,0,10.1,0.2,11.9,0.2c3,0,10.9-0.2,13.6-0.2c5.5,0,11.9,0.5,16.6,3.6c3.8,2.7,6,7,6.1,11.6
	c0,6.2-3.6,11.8-12.1,18.6c7.7,9.5,16.1,33.6,28.2,43.7c6.9,5.7,11,5.3,12.4,5.6c0.7,0.2,1.4,0.2,2.1,0.2c0.5-0.1,1,0.3,1.1,0.9
	c0,0.7-0.6,0.9-1.7,0.9h-8.3c-4.8,0-10.3-0.5-12.5-1.7c-3.8-1.9-5-3-11.9-12.4c-5.2-7.2-16.3-31.5-17.4-32.8c-0.4-0.4-1-0.6-1.6-0.6
	l-7.9-0.2c-0.3,0-0.7,0.2-0.7,0.6c0,0,0,0.1,0,0.1v1.2c0,7.8,0.1,14.4,0.5,17.9c0.3,2.5,0.7,4.1,3.4,4.5c1.4,0.2,2.8,0.3,4.3,0.3
	c0.5,0,1,0.3,1.1,0.9c0,0.6-0.7,0.9-1.8,0.9c-5.1,0-12.3-0.3-13.6-0.3c-1.7,0-7.2,0.3-10.7,0.3c-1.1,0-1.7-0.3-1.7-0.9
	c0-0.4,0.3-0.9,1.4-0.9c1,0,2.1-0.1,3.1-0.3c1.8-0.4,2.3-2,2.6-4.5c0.4-3.6,0.4-10.2,0.4-17.9L464.1,252.2L464.1,252.2z
	 M475.2,258.7c-0.1,0.6,0.2,1.2,0.8,1.5c2.2,0.6,4.4,0.8,6.7,0.8c3.5,0,4.7-0.3,6.1-1.4c2.7-1.9,5.7-5.5,5.7-12.5
	c0-11.9-8.1-15-13.3-15c-1.7,0-3.5,0.1-5.2,0.3c-0.5,0.1-0.9,0.6-0.8,1.2c0,0,0,0,0,0L475.2,258.7L475.2,258.7z"/>
<path class="st6" d="M525.2,226.3c-1.2-3.7-2.3-6-3.7-7c-1.2-0.6-2.6-0.9-4-0.9c-1,0-1.6-0.1-1.6-0.9s0.8-0.9,2.2-0.9
	c5.1,0,10.6,0.3,11.5,0.3s5.2-0.3,11-0.3c1.4,0,2.1,0.3,2.1,0.9c0,0.8-0.8,0.9-1.8,0.9c-0.8-0.1-1.7,0.1-2.5,0.4
	c-0.9,0.4-1.1,1.1-1.1,2.2c0,1.3,1,4.7,2.2,9.1c1.7,6.5,10.9,36.6,12.7,42.1h0.3l19.2-51.6c1-2.8,1.7-3.6,2.5-3.6
	c1.1,0,1.6,1.5,2.9,4.7l20.6,49.8h0.3c1.8-6.6,9.7-32.8,13.2-44.4c0.6-1.9,0.9-3.8,1-5.8c0-1.6-0.9-3-4.8-3c-1,0-1.7-0.3-1.7-0.9
	s0.8-0.9,2.3-0.9c5.3,0,9.4,0.3,10.3,0.3c0.7,0,5-0.3,8.2-0.3c1.1,0,1.8,0.2,1.8,0.8s-0.5,1-1.4,1c-1.2,0-2.3,0.1-3.5,0.5
	c-2.4,0.9-3.5,4.9-5.5,10.5c-4.5,12.5-15,44-19.8,58.9c-1.1,3.5-1.6,4.7-2.9,4.7c-1,0-1.6-1.2-3.1-4.9l-20.7-49.7h-0.2
	c-1.9,5.1-15.1,40.2-19.3,49.2c-1.9,4.1-2.4,5.2-3.6,5.2c-1,0-1.4-1.1-2.3-3.7L525.2,226.3z"/>
<path class="st6" d="M630,259.6c0-14.4,10.1-33,36.6-33c22,0,35.7,12.2,35.7,31.5s-14.1,34.5-36.6,34.5
	C640.3,292.6,630,274.6,630,259.6z M689.3,261.2c0-18.6-11.2-30.1-25.3-30.1c-9.7,0-21.1,5.1-21.1,26c0,17.3,9.9,31,26.3,31
	C675.4,288,689.3,285.2,689.3,261.2z"/>
<path class="st6" d="M718.5,252.2c0-12.8,0-15.2-0.1-17.8c-0.2-2.9-1-3.8-3.8-4.6c-1.1-0.2-2.3-0.3-3.5-0.3c-0.9,0-1.5-0.3-1.5-0.9
	s0.7-0.8,2-0.8c4.6,0,10.1,0.2,11.9,0.2c3,0,10.9-0.2,13.6-0.2c5.5,0,11.9,0.5,16.6,3.6c3.7,2.7,6,7,6.1,11.6
	c0,6.2-3.6,11.8-12.1,18.6c7.7,9.5,13.9,17.1,19.1,22.4c4.8,4.9,7.9,5.2,9.3,5.5c0.7,0.2,1.4,0.2,2.1,0.2c0.5,0,1,0.3,1.1,0.9
	c0,0.7-0.6,0.9-1.7,0.9h-8.3c-4.9,0-7.2-0.5-9.5-1.7c-3.8-1.9-7-5.8-11.9-12.4c-3.5-4.5-7.1-10.2-8.2-11.5c-0.4-0.4-1-0.6-1.6-0.6
	l-7.8-0.2c-0.3,0-0.6,0.2-0.7,0.5c0,0.1,0,0.1,0,0.2v1.2c0,7.8,0.1,14.4,0.5,17.9c0.3,2.5,0.7,4.1,3.4,4.5c1.4,0.2,2.8,0.3,4.3,0.3
	c0.5-0.1,1,0.3,1.1,0.9c0,0,0,0,0,0c0,0.6-0.7,0.9-1.8,0.9c-5,0-12.3-0.3-13.6-0.3c-1.7,0-7.2,0.3-10.7,0.3c-1.1,0-1.7-0.3-1.7-0.9
	c0-0.4,0.3-0.9,1.4-0.9c1,0,2.1-0.1,3.1-0.3c1.8-0.4,2.3-2,2.6-4.5c0.4-3.6,0.4-10.2,0.4-17.9L718.5,252.2L718.5,252.2z
	 M729.6,258.7c-0.1,0.6,0.2,1.3,0.8,1.5c2.2,0.6,4.4,0.8,6.6,0.8c3.5,0,4.7-0.3,6.2-1.4c2.7-1.9,5.7-5.5,5.7-12.5
	c0-11.9-8.1-15-13.3-15c-1.7,0-3.4,0.1-5.1,0.3c-0.5,0.1-0.9,0.6-0.8,1.2c0,0,0,0,0,0V258.7L729.6,258.7z"/>
<path class="st6" d="M797.9,255.9h0.4c3-3.2,15.7-15.7,18.2-18.5s4.3-4.8,4.3-6.2c0.1-0.8-0.4-1.5-1.2-1.7c-0.8-0.2-1.2-0.4-1.2-0.9
	s0.5-0.8,1.4-0.8c1.9,0,6.7,0.2,9,0.2c2.7,0,7.5-0.2,10.2-0.2c0.9,0,1.5,0.2,1.5,0.8s-0.5,0.9-1.3,0.9c-1.7,0.1-3.4,0.4-5.1,1
	c-2.8,1-5.5,2.8-9.2,6.2c-2.8,2.6-15.8,14.8-18.4,17.9c3.1,4,20.2,21.8,23.6,25c3.9,3.5,7.2,7.1,11.9,9c1.7,0.8,3.5,1.1,5.3,1.1
	c0.6-0.1,1.1,0.3,1.2,0.9c0,0,0,0,0,0c0,0.6-0.5,0.9-2.1,0.9h-7.6c-2,0-4,0-6-0.2c-4.7-0.4-7.5-2.2-11.3-5.5s-20.5-22.7-22.4-25.3
	l-0.9-1.2h-0.4v7.6c0,7.7,0,14.4,0.2,18c0.2,2.4,1,4,3.2,4.4c1.4,0.2,2.8,0.3,4.3,0.3c0.6-0.1,1.1,0.3,1.2,0.9
	c0,0.6-0.7,0.9-1.7,0.9c-4.9,0-11.1-0.3-13.3-0.3c-2,0-7.5,0.3-11,0.3c-1.1,0-1.7-0.3-1.7-0.9c0-0.4,0.3-0.9,1.4-0.9
	c1,0,2.1-0.1,3.1-0.3c1.8-0.4,2.3-2,2.5-4.5c0.4-3.6,0.4-10.2,0.4-17.9v-14.9c0-12.8,0-15.2-0.1-17.8c-0.2-2.9-1-3.8-3.8-4.6
	c-1.1-0.2-2.3-0.3-3.5-0.3c-0.9,0-1.5-0.3-1.5-0.9s0.7-0.8,2-0.8c4.6,0,10.1,0.2,12.2,0.2s8.3-0.2,11.2-0.2c1.3,0,1.9,0.2,1.9,0.8
	c0,0.6-0.5,1-1.1,0.9c0,0-0.1,0-0.1,0c-0.8,0-1.7,0.1-2.5,0.3c-2.4,0.4-3.1,1.6-3.3,4.6c-0.1,2.7-0.1,5-0.1,17.8L797.9,255.9
	L797.9,255.9z"/>
<path class="st6" d="M850.1,290.4c-1.4-0.6-1.7-1-1.7-2.9c0-4.5,0.4-9.8,0.5-11.2s0.4-2.2,1.1-2.2s0.9,0.8,0.9,1.4
	c0.1,1.5,0.3,3,0.8,4.4c1.9,6.2,8.4,8.3,13.9,8.3c7.5,0,12.1-4.8,12.1-10.7c0-3.7-0.9-7.3-8.6-11.9l-5.1-3
	c-10.3-6-13.7-11.7-13.7-19.1c0-10.3,9.9-16.9,22-16.9c4.2,0,8.3,0.4,12.4,1.4c0.8,0.2,1.2,0.5,1.2,1.1c0,1.1-0.3,3.5-0.3,10.1
	c0,1.8-0.4,2.7-1.1,2.7s-0.9-0.5-0.9-1.5c-0.1-2-0.9-4-2.3-5.6c-1.3-1.6-4.1-4-9.7-4c-6.2,0-11.9,3.3-11.9,9c0,3.8,1.4,6.7,9.2,11.1
	l3.6,2c11.5,6.3,15.1,12.8,15.1,20.4c0,6.2-2.4,11.3-8.7,15.8c-4.2,3-9.9,3.5-14.6,3.5C859.2,292.6,853.8,292.1,850.1,290.4z"/>
<path class="st7" d="M352.4,181.7c0-5.7,0-6.8-0.1-8s-0.4-1.9-1.6-2.1c-0.5-0.1-1-0.1-1.5-0.1c-0.4,0-0.6-0.1-0.6-0.3
	s0.3-0.4,0.8-0.4c2,0,4.4,0.1,5.4,0.1c1.5,0,3.7-0.1,5.4-0.1c4.7,0,6.4,1.6,7,2.1c1.2,1.2,1.8,2.8,1.9,4.5c0.1,4.9-3.7,8.9-8.6,9.1
	c-0.2,0-0.4,0-0.7,0c-0.3,0-0.5,0-0.8,0c-0.2,0-0.4-0.1-0.5-0.3c0-0.3,0.3-0.4,1.1-0.4c2.1,0,5-2.4,5-6.2c0.1-2.1-0.7-4.2-2.2-5.6
	c-1-0.9-2.4-1.5-3.8-1.5c-0.5,0-1,0-1.5,0.1c-0.2,0.2-0.3,0.4-0.3,0.7v15c0,3.5,0,6.4,0.2,8c0.1,1,0.3,1.9,1.5,2
	c0.6,0.1,1.3,0.1,1.9,0.2c0.4,0,0.6,0.1,0.6,0.3s-0.3,0.4-0.7,0.4c-2.5,0-4.8-0.1-5.8-0.1s-3.2,0.1-4.7,0.1c-0.5,0-0.8-0.1-0.8-0.4
	s0.1-0.3,0.6-0.3c0.5,0,0.9-0.1,1.4-0.2c0.8-0.1,0.9-1,1.1-2.1c0.2-1.6,0.2-4.5,0.2-8L352.4,181.7L352.4,181.7z"/>
<path class="st7" d="M376.2,184.3c0-4.8,0-5.7,0-6.7c0.1-0.9-0.5-1.6-1.4-1.7c0,0,0,0,0,0c-0.4-0.1-0.9-0.1-1.3-0.1
	c-0.3,0-0.6-0.1-0.6-0.3s0.3-0.3,0.8-0.3c1.7,0,3.8,0.1,4.5,0.1c1.1,0,4.1-0.1,5.1-0.1c2.1,0,4.5,0.2,6.3,1.4c1.4,1,2.3,2.6,2.3,4.4
	c0,2.4-1.4,4.5-4.6,7c2.9,3.6,5.2,6.5,7.2,8.5c0.9,1.1,2.1,1.8,3.5,2.1c0.3,0.1,0.5,0.1,0.8,0.1c0.2,0,0.4,0.1,0.4,0.3
	c0,0.3-0.2,0.3-0.6,0.3h-3.2c-1.2,0.1-2.5-0.1-3.6-0.6c-1.4-0.7-2.7-2.2-4.5-4.7c-1.3-1.7-2.7-3.9-3.1-4.4c-0.2-0.2-0.4-0.3-0.6-0.2
	l-3-0.1c-0.1,0-0.2,0.1-0.3,0.2c0,0,0,0,0,0.1v0.4c0,3,0,5.4,0.2,6.8c0.1,0.9,0.3,1.5,1.3,1.7c0.5,0.1,1.1,0.1,1.6,0.1
	c0.2,0,0.4,0.1,0.4,0.3c0,0,0,0,0,0c0,0.2-0.3,0.3-0.7,0.3c-1.9,0-4.7-0.1-5.1-0.1c-0.6,0-2.7,0.1-4,0.1c-0.4,0-0.6-0.1-0.6-0.3
	s0.1-0.3,0.5-0.3c0.4,0,0.8,0,1.2-0.1c0.7-0.1,0.9-0.8,1-1.7c0.2-1.4,0.2-3.9,0.2-6.8L376.2,184.3L376.2,184.3z M380.4,186.7
	c0,0.2,0.1,0.5,0.3,0.6c0.8,0.2,1.7,0.3,2.5,0.3c0.8,0.1,1.6-0.1,2.3-0.5c1.5-1.1,2.3-2.9,2.1-4.7c0-4.5-3.1-5.7-5-5.7
	c-0.7,0-1.3,0-2,0.1c-0.2,0-0.3,0.2-0.3,0.4L380.4,186.7L380.4,186.7z"/>
<path class="st7" d="M401.9,184.3c0-4.8,0-5.7,0-6.7c0.1-0.8-0.4-1.5-1.1-1.7c-0.4-0.1-0.8-0.2-1.2-0.1c-0.3,0-0.5-0.1-0.5-0.4
	s0.3-0.3,0.8-0.3c1.2,0,3.5,0.1,4.4,0.1s3-0.1,4.2-0.1c0.4,0,0.7,0.1,0.7,0.3s-0.2,0.4-0.5,0.4c-0.3,0-0.7,0-1,0.1
	c-0.9,0.1-1.2,0.6-1.2,1.7s-0.1,1.9-0.1,6.7v5.6c0,3.1,0,5.6,0.1,7c-0.1,0.8,0.5,1.4,1.3,1.5c0,0,0,0,0,0c0.6,0.1,1.1,0.1,1.7,0.1
	c0.4,0,0.5,0.2,0.5,0.3s-0.3,0.3-0.6,0.3c-2.2,0-4.4-0.1-5.3-0.1c-0.8,0-3,0.1-4.3,0.1c-0.4,0-0.6-0.1-0.6-0.3s0.1-0.3,0.5-0.3
	c0.4,0,0.8,0,1.2-0.1c0.7-0.1,0.9-0.6,1-1.5c0.2-1.3,0.2-3.9,0.2-6.9L401.9,184.3L401.9,184.3z"/>
<path class="st7" d="M419.2,194.8c0.1,2.5,0.5,3.2,1.1,3.4c0.6,0.2,1.1,0.3,1.7,0.2c0.4,0,0.6,0.1,0.6,0.3s-0.3,0.3-0.8,0.3
	c-2.1,0-3.7-0.1-4.3-0.1c-0.3,0-1.9,0.1-3.6,0.1c-0.4,0-0.8,0-0.8-0.3c0.1-0.2,0.3-0.4,0.5-0.3c0.5,0,1-0.1,1.5-0.2
	c0.9-0.2,1-1.1,1-3.9l0.3-18.9c0-0.6,0.2-1.1,0.6-1.1c0.6,0.2,1.1,0.6,1.4,1.1c0.4,0.4,5.4,5.5,10.2,10.2c2.2,2.2,6.6,6.7,7.1,7.2
	h0.1l-0.4-14.2c0-1.9-0.3-2.5-1.1-2.8c-0.6-0.1-1.2-0.2-1.7-0.2c-0.4,0-0.5-0.1-0.5-0.3s0.3-0.3,0.8-0.3c1.7,0,3.5,0.1,4.2,0.1
	c0.4,0,1.6-0.1,3.2-0.1c0.4,0,0.8,0,0.8,0.3s-0.2,0.3-0.6,0.3c-0.3,0-0.7,0-1,0.1c-0.9,0.3-1.1,0.8-1.2,2.6l-0.4,20.1
	c0,0.7-0.2,1-0.5,1c-0.5,0-1-0.3-1.4-0.7c-2-1.9-6.2-5.9-9.6-9.2s-7.1-7.3-7.7-7.9h-0.1L419.2,194.8z"/>
<path class="st7" d="M453.1,177l-4.9,0.1c-1.9,0-2.7,0.3-3.2,1c-0.2,0.3-0.4,0.7-0.6,1.1c-0.1,0.3-0.1,0.4-0.4,0.4s-0.3-0.2-0.3-0.5
	c0-0.5,0.6-3.6,0.7-3.9c0.1-0.4,0.2-0.6,0.4-0.6s0.6,0.3,1.4,0.4c1.1,0.1,2.2,0.2,3.3,0.1h13.4c0.8,0,1.5,0,2.2-0.1
	c0.5-0.1,0.8-0.1,0.9-0.1s0.3,0.2,0.3,0.7c0,0.7-0.1,3-0.1,3.9c0,0.3-0.1,0.5-0.3,0.5s-0.3-0.1-0.4-0.6v-0.3c-0.1-0.8-1-1.8-3.9-1.8
	l-4.2-0.1v12.9c0,2.9,0,5.4,0.2,6.8c0.1,0.9,0.3,1.5,1.3,1.6c0.6,0.1,1.1,0.1,1.7,0.1c0.4,0,0.5,0.2,0.5,0.3s-0.3,0.3-0.6,0.3
	c-2.2,0-4.4-0.1-5.3-0.1c-0.8,0-3,0.1-4.3,0.1c-0.4,0-0.6-0.1-0.6-0.3s0.1-0.3,0.5-0.3c0.4,0,0.8,0,1.2-0.1c0.7-0.1,0.9-0.8,1-1.7
	c0.1-1.4,0.1-3.9,0.1-6.8L453.1,177L453.1,177z"/>
<path class="st7" d="M488.6,189.4c0.1-1.4-0.2-2.7-0.9-3.9c-0.3-0.6-5.3-8.9-6.6-10.8c-0.7-1.1-1.5-2-2.6-2.7
	c-0.5-0.3-1-0.5-1.6-0.5c-0.3,0-0.6-0.1-0.6-0.3s0.3-0.4,0.7-0.4c0.7,0,3.5,0.1,4.7,0.1c0.8,0,2.3-0.1,4-0.1c0.4,0,0.6,0.1,0.6,0.4
	s-0.2,0.2-0.8,0.4c-0.3,0.1-0.5,0.4-0.5,0.7c0.1,0.5,0.2,0.9,0.4,1.3c0.5,1.1,5.8,10.2,6.4,11.2c0.4-0.9,5.1-9.1,5.6-10.3
	c0.3-0.6,0.5-1.3,0.5-1.9c0-0.5-0.3-0.9-0.8-0.9c-0.3,0-0.5-0.1-0.7-0.3c0-0.3,0.2-0.4,0.6-0.4c1.2,0,2.4,0.1,3.5,0.1
	c0.8,0,3.3-0.1,4-0.1c0.4,0,0.7,0.1,0.7,0.3s-0.3,0.4-0.7,0.4c-0.6,0-1.1,0.2-1.7,0.5c-0.8,0.4-1.5,1.1-2,1.8
	c-2.6,3.8-5,7.8-7.2,11.9c-0.5,1.2-0.7,2.5-0.6,3.8v3.1c0,0.6,0,2.2,0.1,3.8c0.1,1.1,0.4,1.9,1.5,2.1c0.6,0.1,1.3,0.1,1.9,0.2
	c0.4,0,0.6,0.1,0.6,0.3s-0.3,0.4-0.8,0.4c-2.4,0-4.7-0.1-5.7-0.1s-3.3,0.1-4.7,0.1c-0.5,0-0.8-0.1-0.8-0.4s0.2-0.3,0.6-0.3
	c0.4,0,0.9-0.1,1.3-0.2c0.8-0.1,1.1-1,1.2-2.1c0.1-1.6,0.1-3.1,0.1-3.8L488.6,189.4L488.6,189.4z"/>
<path class="st7" d="M504.6,187.1c0-5.4,3.8-12.5,13.8-12.5c8.3,0,13.5,4.6,13.5,11.9s-5.3,13-13.8,13
	C508.5,199.6,504.6,192.7,504.6,187.1z M527,187.7c0-7.1-4.2-11.4-9.6-11.4c-3.7,0-8,1.9-8,9.8c0,6.6,3.7,11.7,10,11.7
	C521.8,197.8,527,196.7,527,187.7L527,187.7z"/>
<path class="st7" d="M537.8,184.3c0-4.8,0-5.7,0-6.7c0.1-0.9-0.5-1.6-1.4-1.7c0,0,0,0-0.1,0c-0.4-0.1-0.8-0.1-1.3-0.1
	c-0.4,0-0.6-0.1-0.6-0.3s0.2-0.3,0.7-0.3c1.8,0,4,0.1,5,0.1c0.8,0,3-0.1,4.2-0.1c0.5,0,0.7,0.1,0.7,0.3s-0.2,0.3-0.5,0.3
	c-0.3,0-0.7,0-1,0.1c-0.9,0.1-1.1,0.6-1.2,1.7s-0.1,1.9-0.1,6.7v4.5c0,4.6,0.9,6.4,2.5,7.7c2.6,1.8,6.2,1.7,8.6-0.4
	c1.8-1.7,1.9-4.5,1.9-7.8v-4c0-4.8,0-5.7-0.1-6.7c0.1-0.8-0.5-1.6-1.3-1.7c0,0,0,0,0,0c-0.4-0.1-0.8-0.1-1.2-0.1
	c-0.4,0-0.6-0.1-0.6-0.3s0.2-0.3,0.7-0.3c1.7,0,3.9,0.1,3.9,0.1c0.4,0,2.6-0.1,3.9-0.1c0.4,0,0.7,0.1,0.7,0.3s-0.2,0.3-0.6,0.3
	c-0.3,0-0.7,0-1,0.1c-0.9,0.1-1.1,0.6-1.2,1.7s-0.1,1.9-0.1,6.7v3.4c0,3.6-0.4,7.3-3.2,9.6c-2,1.6-4.5,2.4-7,2.3
	c-1.7,0-5.2-0.1-7.5-2.2c-1.7-1.5-3-3.8-3-8.4L537.8,184.3L537.8,184.3z"/>
<path class="st7" d="M567,184.3c0-4.8,0-5.7,0-6.7c0.1-0.9-0.5-1.6-1.4-1.7c0,0,0,0,0,0c-0.4-0.1-0.9-0.1-1.3-0.1
	c-0.3,0-0.5-0.1-0.5-0.3s0.3-0.3,0.8-0.3c1.7,0,3.8,0.1,4.5,0.1c1.1,0,4.1-0.1,5.1-0.1c2.1,0,4.5,0.2,6.3,1.4c1.4,1,2.2,2.6,2.2,4.4
	c0,2.4-1.4,4.5-4.6,7c2.9,3.6,5.2,6.5,7.2,8.5c0.9,1.1,2.1,1.8,3.5,2.1c0.3,0.1,0.5,0.1,0.8,0.1c0.2,0,0.4,0.1,0.4,0.3
	c0,0.3-0.2,0.3-0.6,0.3h-3.2c-1.2,0.1-2.5-0.1-3.6-0.6c-1.4-0.7-2.7-2.2-4.5-4.7c-1.3-1.7-2.7-3.9-3.1-4.4c-0.2-0.2-0.4-0.3-0.6-0.2
	l-3-0.1c-0.1,0-0.3,0.1-0.3,0.2c0,0,0,0,0,0.1v0.4c0,3,0,5.4,0.2,6.8c0.1,0.9,0.2,1.5,1.3,1.7c0.5,0.1,1.1,0.1,1.6,0.1
	c0.2,0,0.4,0.1,0.4,0.3c0,0,0,0,0,0c0,0.2-0.3,0.3-0.7,0.3c-1.9,0-4.7-0.1-5.1-0.1c-0.6,0-2.7,0.1-4,0.1c-0.4,0-0.6-0.1-0.6-0.3
	s0.1-0.3,0.5-0.3c0.4,0,0.8,0,1.2-0.1c0.7-0.1,0.9-0.8,1-1.7c0.2-1.4,0.2-3.9,0.2-6.8L567,184.3L567,184.3z M571.2,186.7
	c-0.1,0.2,0.1,0.5,0.3,0.6c0.8,0.2,1.7,0.3,2.5,0.3c0.8,0.1,1.6-0.1,2.3-0.5c1.5-1.1,2.3-2.9,2.1-4.7c0-4.5-3.1-5.7-5-5.7
	c-0.7,0-1.3,0-2,0.1c-0.2,0.1-0.3,0.2-0.3,0.4L571.2,186.7L571.2,186.7z"/>
<path class="st7" d="M606.2,189.4c-0.2,0-0.3,0.1-0.3,0.3c0,0,0,0,0,0l-2,5.4c-0.3,0.7-0.5,1.5-0.6,2.3c0,0.7,0.3,1.2,1.5,1.2h0.6
	c0.5,0,0.6,0.1,0.6,0.3s-0.2,0.4-0.6,0.4c-1.2,0-2.8-0.1-4-0.1c-0.4,0-2.5,0.1-4.4,0.1c-0.5,0-0.7-0.1-0.7-0.4s0.2-0.3,0.5-0.3
	c0.4,0,0.8,0,1.2-0.1c1.7-0.2,2.4-1.5,3.2-3.4l9.4-23.6c0.5-1.1,0.7-1.5,1.1-1.5s0.5,0.4,0.9,1.2c0.9,2.1,6.9,17.4,9.3,23.1
	c1.4,3.4,2.5,3.9,3.3,4.1c0.5,0.1,1,0.2,1.6,0.2c0.3,0,0.5,0,0.5,0.3s-0.3,0.4-1.7,0.4s-4.1,0-7.1-0.1c-0.7,0-1.1,0-1.1-0.3
	s0.2-0.3,0.5-0.3c0.3-0.1,0.5-0.5,0.4-0.8c0,0,0,0,0-0.1l-3-8c0-0.2-0.2-0.3-0.4-0.3L606.2,189.4L606.2,189.4z M613.8,187.5
	c0.2,0,0.2-0.1,0.2-0.2l-3.4-9.3c0-0.1-0.1-0.3-0.2-0.3c-0.1,0.1-0.2,0.2-0.2,0.3l-3.5,9.2c0,0.1,0,0.3,0.2,0.3H613.8L613.8,187.5z"
	/>
<path class="st7" d="M630.2,184.3c0-4.8,0-5.7,0-6.7c0.1-0.8-0.5-1.6-1.4-1.7c0,0,0,0-0.1,0c-0.4-0.1-0.9-0.1-1.3-0.1
	c-0.3,0-0.6-0.1-0.6-0.3s0.3-0.3,0.8-0.3c1.7,0,3.8,0.1,4.5,0.1c1.1,0,4.1-0.1,5.1-0.1c2.1,0,4.5,0.2,6.3,1.4c1.4,1,2.3,2.6,2.3,4.4
	c0,2.4-1.4,4.5-4.6,7c2.9,3.6,5.3,6.5,7.2,8.5c0.9,1.1,2.1,1.8,3.5,2.1c0.3,0.1,0.5,0.1,0.8,0.1c0.2,0,0.4,0.1,0.4,0.3c0,0,0,0,0,0
	c0,0.3-0.2,0.3-0.7,0.3h-3.2c-1.2,0.1-2.5-0.1-3.6-0.6c-1.4-0.7-2.7-2.2-4.5-4.7c-1.3-1.7-2.7-3.9-3.1-4.4c-0.2-0.2-0.4-0.3-0.6-0.2
	l-3-0.1c-0.1,0-0.2,0.1-0.3,0.2c0,0,0,0,0,0.1v0.4c0,3,0,5.4,0.2,6.8c0.1,0.9,0.3,1.5,1.3,1.7c0.5,0.1,1.1,0.1,1.6,0.1
	c0.2,0,0.4,0.1,0.4,0.3c0,0.2-0.3,0.3-0.7,0.3c-1.9,0-4.7-0.1-5.1-0.1s-2.7,0.1-4,0.1c-0.4,0-0.6-0.1-0.6-0.3s0.1-0.3,0.5-0.3
	c0.4,0,0.8,0,1.2-0.1c0.7-0.1,0.8-0.8,1-1.7c0.2-1.4,0.2-3.9,0.2-6.8L630.2,184.3L630.2,184.3z M634.4,186.7
	c-0.1,0.2,0.1,0.5,0.3,0.6c0.8,0.2,1.7,0.3,2.5,0.3c0.8,0.1,1.6-0.1,2.3-0.5c1.5-1.1,2.3-2.9,2.1-4.7c0-4.5-3.1-5.7-5-5.7
	c-0.7,0-1.3,0-2,0.1c-0.2,0.1-0.3,0.2-0.3,0.4L634.4,186.7L634.4,186.7z"/>
<path class="st7" d="M658.9,177l-4.9,0.1c-1.9,0-2.7,0.3-3.2,1c-0.2,0.3-0.4,0.7-0.5,1.1c-0.1,0.3-0.2,0.4-0.4,0.4s-0.3-0.2-0.3-0.5
	c0-0.5,0.7-3.6,0.7-3.9c0.1-0.4,0.2-0.6,0.4-0.6s0.6,0.3,1.4,0.4c1.1,0.1,2.2,0.2,3.3,0.1h13.4c0.8,0,1.5,0,2.2-0.1
	c0.5-0.1,0.8-0.1,0.9-0.1s0.2,0.2,0.2,0.7c0,0.7-0.1,3-0.1,3.9c0,0.3-0.1,0.5-0.3,0.5s-0.4-0.1-0.4-0.6v-0.3
	c-0.1-0.8-0.9-1.8-3.9-1.8l-4.2-0.1v12.9c0,2.9,0,5.4,0.2,6.8c0.1,0.9,0.3,1.5,1.3,1.6c0.6,0.1,1.1,0.1,1.7,0.1
	c0.4,0,0.5,0.2,0.5,0.3s-0.2,0.3-0.6,0.3c-2.2,0-4.4-0.1-5.3-0.1c-0.8,0-3,0.1-4.3,0.1c-0.4,0-0.7-0.1-0.7-0.3s0.1-0.3,0.5-0.3
	c0.4,0,0.8,0,1.2-0.1c0.7-0.1,0.9-0.8,1-1.7c0.2-1.4,0.2-3.9,0.2-6.8L658.9,177L658.9,177z"/>
<path class="st7" d="M692.3,182.5c-1.2-1.5-1.9-3.4-1.9-5.3c0-3,2.6-6.9,9.1-6.9c1.5,0,3.1,0.3,4.5,0.8c0.4,0.1,0.7,0.5,0.7,0.9
	c0,0,0,0,0,0.1c-0.1,1.6-0.2,3.2-0.4,4.8c-0.1,0.6-0.2,0.6-0.5,0.6s-0.2-0.2-0.2-0.7c0-1.1-0.4-2.3-1.1-3.1
	c-1.1-1.2-2.6-1.8-4.2-1.7c-2.2,0-4,1.8-4,4c0,0.1,0,0.2,0,0.3c0,3.5,3.2,6.5,6.2,9.9c1.3,1.5,5.9,5.6,6.6,6.3
	c1.1-1.7,1.7-3.7,1.8-5.8c0-0.6-0.2-1.3-0.7-1.7c-0.5-0.4-1.2-0.6-1.8-0.6c-0.2,0-0.4-0.1-0.4-0.3c0,0,0,0,0,0
	c0-0.3,0.3-0.4,0.6-0.4c1.5,0,3,0.1,4.5,0.3c0.7,0.1,1.3,0.3,1.3,0.8c-0.2,3.3-1.5,6.4-3.7,8.9c1.6,1.4,3.4,2.6,5.2,3.7
	c1.2,0.7,2.6,1.1,4,1.3c0.3,0,0.5,0,0.5,0.3s-0.3,0.3-1.1,0.3h-2.9c-4.3,0-5.6-0.4-8.8-2.9c-2.4,2.3-5.6,3.5-8.9,3.4
	c-8,0-10.4-5-10.4-8.3C686.2,187,690.1,183.6,692.3,182.5z M704.1,195.1c-2.2-1.9-5.8-5.4-6.8-6.4s-3.4-3.8-4-4.7
	c-1.8,1.4-2.7,3.5-2.6,5.7c0,4.7,3.3,7.7,7.2,7.7C700.2,197.3,702.3,196.5,704.1,195.1L704.1,195.1z"/>
<path class="st7" d="M732.6,181.7c0-5.7,0-6.8-0.1-8s-0.4-1.9-1.6-2.1c-0.5-0.1-1-0.1-1.5-0.1c-0.4,0-0.6-0.1-0.6-0.3
	s0.2-0.4,0.8-0.4c2,0,4.3,0.1,5.4,0.1c1.5,0,3.7-0.1,5.4-0.1c4.7,0,6.4,1.6,7,2.1c1.2,1.2,1.8,2.8,1.9,4.5c0.1,4.9-3.7,8.9-8.6,9.1
	c-0.2,0-0.4,0-0.7,0c-0.3,0-0.5,0-0.8,0c-0.2,0-0.5-0.1-0.5-0.3s0.2-0.4,1-0.4c2.1,0,5-2.4,5-6.2c0.1-2.1-0.7-4.2-2.2-5.6
	c-1-0.9-2.4-1.5-3.7-1.5c-0.5,0-1,0-1.5,0.1c-0.2,0.1-0.4,0.4-0.3,0.7v15c0,3.5,0,6.4,0.2,8c0.1,1,0.3,1.9,1.5,2
	c0.6,0.1,1.3,0.1,1.9,0.2c0.4,0,0.6,0.1,0.6,0.3s-0.3,0.4-0.7,0.4c-2.5,0-4.8-0.1-5.8-0.1s-3.2,0.2-4.7,0.2c-0.5,0-0.8-0.1-0.8-0.4
	s0.1-0.3,0.6-0.3c0.5,0,0.9-0.1,1.3-0.2c0.8-0.1,0.9-1,1.1-2.1c0.2-1.6,0.2-4.5,0.2-8L732.6,181.7L732.6,181.7z"/>
<path class="st7" d="M773.5,185.4c0.1,0,0.2-0.1,0.2-0.2c0,0,0,0,0,0v-0.7c0-4.8,0-6-0.1-7c0.1-0.9-0.5-1.6-1.4-1.7c0,0,0,0,0,0
	c-0.4-0.1-0.8-0.1-1.3-0.1c-0.4,0-0.6-0.1-0.6-0.3s0.2-0.3,0.7-0.3c1.8,0,4.1,0.1,4.9,0.1s3-0.1,4.2-0.1c0.5,0,0.7,0.1,0.7,0.3
	s-0.2,0.3-0.6,0.3c-0.3,0-0.7,0-1,0.1c-0.9,0.1-1.1,0.6-1.2,1.7s-0.1,1.9-0.1,6.7v5.6c0,2.9,0,5.4,0.2,6.8c0.1,0.9,0.3,1.5,1.3,1.6
	c0.6,0.1,1.1,0.1,1.7,0.1c0.2,0,0.5,0.1,0.5,0.3c0,0.2-0.3,0.3-0.7,0.3c-2.2,0-4.3-0.1-5.2-0.1c-0.7,0-3.1,0.1-4.3,0.1
	c-0.5,0-0.7-0.1-0.7-0.3s0.2-0.3,0.5-0.3c0.4,0,0.8,0,1.2-0.1c0.7-0.1,0.8-0.8,1-1.7c0.2-1.4,0.2-3.8,0.2-6.7v-2.4
	c0-0.1-0.1-0.2-0.2-0.2H761c-0.1,0-0.2,0-0.2,0.1c0,0,0,0,0,0v2.4c0,2.9,0,5.4,0.2,6.7c0.1,0.9,0.3,1.5,1.3,1.6
	c0.6,0.1,1.1,0.1,1.7,0.1c0.2-0.1,0.5,0.1,0.5,0.3c0,0,0,0,0,0c0,0.2-0.3,0.3-0.7,0.3c-2.1,0-4.4-0.1-5.4-0.1
	c-0.8,0-2.9,0.1-4.2,0.1c-0.4,0-0.6-0.1-0.6-0.3s0.1-0.3,0.5-0.3c0.4,0,0.8,0,1.2-0.1c0.7-0.1,0.8-0.8,1-1.7
	c0.2-1.4,0.2-3.9,0.2-6.8v-5.6c0-4.8,0-5.7,0-6.7c0.1-0.9-0.5-1.6-1.4-1.7c0,0,0,0,0,0c-0.4-0.1-0.9-0.1-1.3-0.1
	c-0.3,0-0.6-0.1-0.6-0.3s0.3-0.3,0.7-0.3c1.8,0,3.9,0.1,4.8,0.1s3.1-0.1,4.4-0.1c0.5,0,0.7,0.1,0.7,0.3s-0.2,0.3-0.6,0.3
	c-0.3,0-0.6,0-0.9,0.1c-0.9,0.1-1.2,0.6-1.2,1.7s-0.1,2.2-0.1,7v0.7c0,0.1,0.1,0.2,0.2,0.2c0,0,0,0,0.1,0L773.5,185.4L773.5,185.4z"
	/>
<path class="st7" d="M784.9,187.1c0-5.4,3.8-12.5,13.8-12.5c8.3,0,13.5,4.6,13.5,11.9s-5.3,13-13.8,13
	C788.8,199.6,784.9,192.7,784.9,187.1z M807.3,187.7c0-7.1-4.2-11.4-9.6-11.4c-3.7,0-8,1.9-8,9.8c0,6.6,3.8,11.7,10,11.7
	C802.1,197.8,807.3,196.7,807.3,187.7L807.3,187.7z"/>
<path class="st7" d="M823.2,177l-4.9,0.1c-1.9,0-2.7,0.3-3.2,1c-0.2,0.3-0.4,0.7-0.6,1.1c-0.1,0.3-0.1,0.4-0.4,0.4s-0.3-0.2-0.3-0.5
	c0-0.5,0.6-3.6,0.7-3.9c0.1-0.4,0.2-0.6,0.4-0.6s0.6,0.3,1.4,0.4c1.1,0.1,2.2,0.2,3.3,0.1h13.4c0.7,0,1.5,0,2.2-0.1
	c0.5-0.1,0.8-0.1,0.9-0.1s0.3,0.2,0.3,0.7c0,0.7-0.1,3-0.1,3.9c0,0.3-0.1,0.5-0.3,0.5s-0.3-0.1-0.4-0.6v-0.3
	c-0.1-0.8-0.9-1.8-3.9-1.8l-4.2-0.1v12.9c0,2.9,0,5.4,0.2,6.8c0.1,0.9,0.3,1.5,1.3,1.6c0.6,0.1,1.1,0.1,1.7,0.1
	c0.4,0,0.5,0.2,0.5,0.3s-0.3,0.3-0.6,0.3c-2.2,0-4.4-0.1-5.3-0.1c-0.8,0-3,0.1-4.3,0.1c-0.4,0-0.6-0.1-0.6-0.3s0.1-0.3,0.5-0.3
	c0.4,0,0.8,0,1.2-0.1c0.7-0.1,0.9-0.8,1-1.7c0.2-1.4,0.2-3.9,0.2-6.8L823.2,177L823.2,177z"/>
<path class="st7" d="M838.5,187.1c0-5.4,3.8-12.5,13.8-12.5c8.3,0,13.5,4.6,13.5,11.9s-5.3,13-13.8,13
	C842.4,199.6,838.5,192.7,838.5,187.1z M860.9,187.7c0-7.1-4.2-11.4-9.6-11.4c-3.7,0-8,1.9-8,9.8c0,6.6,3.8,11.7,10,11.7
	C855.6,197.8,860.9,196.7,860.9,187.7L860.9,187.7z"/>
<path class="st7" d="M871.3,198.7c-0.5-0.1-0.8-0.6-0.6-1.1c0,0,0,0,0,0c0-1.7,0.2-3.7,0.2-4.2s0.2-0.8,0.4-0.8s0.3,0.3,0.3,0.5
	c0,0.6,0.1,1.1,0.3,1.7c0.7,2.4,3.2,3.1,5.2,3.1c2.8,0,4.6-1.8,4.6-4.1c0-1.4-0.3-2.8-3.3-4.5l-1.8-1.1c-3.9-2.3-5.2-4.4-5.2-7.2
	c0-3.9,3.8-6.4,8.3-6.4c1.6,0,3.2,0.2,4.7,0.5c0.2,0,0.4,0.2,0.4,0.4c0,0.4-0.1,1.3-0.1,3.8c0,0.7-0.2,1-0.4,1s-0.3-0.2-0.3-0.6
	c-0.1-0.8-0.4-1.5-0.9-2.1c-0.9-1-2.3-1.6-3.7-1.5c-2.4,0-4.5,1.2-4.5,3.4c0,1.4,0.5,2.6,3.5,4.2l1.3,0.8c4.3,2.4,5.7,4.8,5.7,7.7
	c0.1,2.4-1.2,4.7-3.3,6c-1.7,1-3.6,1.4-5.5,1.3C874.8,199.7,873,199.4,871.3,198.7z"/>
<path class="st7" d="M895.7,153.5l-2.7,0.1c-1,0-1.5,0.1-1.8,0.5c-0.1,0.2-0.2,0.4-0.3,0.6c0,0.1-0.1,0.2-0.2,0.2
	c-0.1,0-0.2-0.1-0.2-0.3s0.4-1.9,0.4-2.1s0.1-0.3,0.2-0.3c0.2,0.1,0.5,0.2,0.8,0.2c0.5,0.1,1.2,0.1,1.8,0.1h7.1c0.4,0,0.8,0,1.2-0.1
	c0.2,0,0.3-0.1,0.5-0.1c0.1,0,0.2,0.1,0.2,0.4s-0.1,1.6-0.1,2.1c0,0.2-0.1,0.3-0.2,0.3s-0.2-0.1-0.2-0.4v-0.2c0-0.5-0.5-1-2.1-1
	l-2.3-0.1v7.4c0,1.7,0,3.1,0.1,3.9c-0.1,0.5,0.2,0.9,0.7,1c0.3,0,0.6,0.1,0.9,0.1c0.2,0,0.3,0,0.3,0.1s-0.1,0.2-0.3,0.2
	c-1.2,0-2.3-0.1-2.8-0.1s-1.5,0.1-2.3,0.1c-0.2,0-0.4-0.1-0.4-0.2s0.1-0.1,0.3-0.1c0.2,0,0.4,0,0.7-0.1c0.4-0.2,0.6-0.6,0.5-1
	c0.1-0.8,0.1-2.2,0.1-3.8L895.7,153.5L895.7,153.5z"/>
<path class="st7" d="M906.5,152.5c0-0.2,0.1-0.4,0.3-0.5c0.1,0,0.2,0.1,0.5,0.6l4.9,10.2l4.9-10.3c0-0.2,0.2-0.4,0.4-0.4
	c0.2,0,0.3,0.2,0.3,0.6l1.6,11.1c0.2,1.1,0.4,1.7,0.9,1.8c0.4,0.1,0.7,0.2,1.1,0.2c0.2,0,0.3,0,0.3,0.1s-0.2,0.2-0.5,0.2
	c-0.4,0-2.9-0.1-3.7-0.1c-0.4,0-0.5-0.1-0.5-0.2c0-0.1,0.1-0.2,0.2-0.2c0.2-0.2,0.2-0.5,0.1-0.8l-1.1-7.9h-0.1l-3.9,8.2
	c-0.4,0.8-0.5,1-0.7,1c-0.3-0.2-0.5-0.5-0.6-0.9c-0.4-0.8-1.8-3.6-2.1-4.1s-1.2-2.6-1.9-4H907l-1,7.2c0,0.3,0,0.6,0,0.9
	c0,0.3,0.2,0.5,0.5,0.6c0.2,0.1,0.5,0.1,0.8,0.1c0.2,0,0.3,0,0.3,0.1s-0.2,0.2-0.4,0.2c-0.8,0-1.5-0.1-1.9-0.1s-1.2,0.1-1.8,0.1
	c-0.2,0-0.3,0-0.3-0.2s0.1-0.1,0.3-0.1c0.2,0,0.4,0,0.5-0.1c0.5-0.3,0.8-0.9,0.7-1.4L906.5,152.5z"/>
</svg>
