<svg xmlns="http://www.w3.org/2000/svg" viewBox="0 0 612 612" xmlnsV="https://vecta.io/nano"><path d="M46.27 501.24l26.99 46.62c5.61 9.81 13.67 17.53 23.13 23.13l96.39-166.85H0c0 10.87 2.8 21.73 8.41 31.55l37.86 65.55z" fill="#0066da"/><path d="M306 207.86L209.61 41.01c-9.46 5.61-17.53 13.32-23.13 23.13L8.41 372.6C2.9 382.2 0 393.08 0 404.15h192.78L306 207.86z" fill="#00ac47"/><path d="M515.61 570.99c9.46-5.61 17.53-13.32 23.13-23.13l11.22-19.28 53.63-92.89c5.61-9.81 8.41-20.68 8.41-31.55H419.2l41.02 80.62 55.39 86.23z" fill="#ea4335"/><path d="M306 207.86l96.39-166.85c-9.46-5.61-20.33-8.41-31.55-8.41H241.15c-11.22 0-22.08 3.15-31.55 8.41L306 207.86z" fill="#00832d"/><path d="M419.22 404.14H192.78L96.39 570.99c9.46 5.61 20.33 8.41 31.55 8.41h356.12c11.22 0 22.08-3.15 31.55-8.41l-96.39-166.85z" fill="#2684fc"/><path d="M514.56 218.37L425.53 64.14c-5.61-9.81-13.67-17.53-23.13-23.13L306 207.86l113.22 196.29h192.43c0-10.87-2.8-21.73-8.41-31.55l-88.68-154.23z" fill="#ffba00"/></svg>